<svg width="347" height="315" viewBox="0 0 347 315" fill="none" xmlns="http://www.w3.org/2000/svg">
<path d="M121.393 0.671923C106.05 4.70473 94.7927 21.425 91.5152 45.0782C90.9452 49.4282 90.8027 52.8266 90.9927 59.5782C91.4677 75.1204 94.3177 86.4032 100.873 98.6375C112.748 120.705 133.03 127.864 148.99 115.675C170.46 99.2266 175.543 54.911 159.488 24.2344C155.118 15.8969 147.565 7.28755 141.58 3.93442C135.5 0.490673 127.188 -0.868702 121.393 0.671923Z" fill="#9F86C0"/>
<path d="M238.1 11.9546C230.263 13.8577 223.233 17.7999 215.918 24.4155C204.185 35.0186 195.398 49.0655 190.41 65.378C187.275 75.5733 185.993 88.7139 187.275 97.7311C189.08 110.6 194.543 119.662 203.425 124.511C208.27 127.184 216.25 127.864 223.185 126.187C244.56 121.067 265.983 94.5593 272.063 65.7405C276.813 43.1296 271.968 23.4639 259.618 15.4436C255.058 12.4983 251.638 11.4108 246.175 11.2749C242.898 11.1389 240.713 11.3655 238.1 11.9546Z" fill="#9F86C0"/>
<path d="M22.3551 55.9078C11.3826 59.2609 4.11512 69.275 1.26512 84.9531C0.0776157 91.4781 0.552616 104.981 2.21512 112.458C6.25262 130.537 14.4701 145.944 26.4876 157.861C31.8076 163.117 35.7026 165.972 41.2126 168.555C53.8476 174.581 65.2476 173.358 73.7976 165.202C89.0926 150.566 89.5676 118.892 74.8901 90.1641C70.4726 81.4187 65.1051 74.4859 57.5051 67.4625C50.6176 61.1187 44.2526 57.4484 37.1276 55.7719C32.9001 54.775 25.8701 54.8656 22.3551 55.9078Z" fill="#9F86C0"/>
<path d="M314.005 89.0765C302.035 90.753 287.31 99.7702 276.528 112.05C261.423 129.269 253.158 148.98 253.205 167.648C253.253 179.022 256.578 187.45 263.323 193.431C268.595 198.098 274.2 199.866 282.56 199.503C293.913 198.959 305.883 193.114 317.615 182.375C325.69 174.989 331.723 167.105 336.995 157.226C343.835 144.312 346.923 133.211 346.923 121.203C346.923 112.684 345.83 107.655 342.695 101.945C337.185 91.9311 326.783 87.264 314.005 89.0765Z" fill="#9F86C0"/>
<path d="M157.018 129.359C152.743 130.447 149.37 131.761 145.475 134.027C138.873 137.787 135.358 141.141 124.1 154.281C110.8 169.869 97.8802 182.239 89.4727 187.541C85.9577 189.761 81.4927 191.981 69.4752 197.464C59.4527 202.086 54.8452 204.941 49.7152 209.789C42.5427 216.541 38.6002 223.609 35.6077 235.164C33.1852 244.362 33.0902 246.537 34.5627 254.648C36.3202 264.708 38.6002 270.553 43.0177 276.852C51.9952 289.494 70.1402 298.737 91.0402 301.275C93.9377 301.637 101.253 302.045 107.238 302.181C122.39 302.544 127.663 302.816 138.35 303.858C158.68 305.806 188.938 310.111 204.28 313.237C209.6 314.325 211.31 314.461 218.863 314.461C228.03 314.416 232.828 313.827 240.713 311.697C268.12 304.266 281.515 281.111 273.915 254.15C271.635 245.903 266.838 236.433 262.61 231.811C261.328 230.406 256.15 224.969 251.115 219.758C246.08 214.502 240.57 208.611 238.813 206.617C230.928 197.555 220.62 182.511 208.508 162.437C200.813 149.614 197.915 145.898 190.315 138.875C184.425 133.437 179.913 130.855 173.69 129.359C168.893 128.181 161.72 128.181 157.018 129.359Z" fill="#9F86C0"/>
</svg>
