<svg width="56" height="58" viewBox="0 0 56 58" fill="none" xmlns="http://www.w3.org/2000/svg">
<path d="M28 58C27.4583 58 27 57.7734 26.625 57.3203L7.125 34.5885C6.91667 34.3872 6.63021 34.0599 6.26562 33.6068C5.90104 33.1536 5.32292 32.3292 4.53125 31.1335C3.73958 29.9377 3.03125 28.7105 2.40625 27.4518C1.78125 26.1931 1.22396 24.6701 0.734375 22.8828C0.244792 21.0955 0 19.3585 0 17.6719C0 12.1337 1.32292 7.80382 3.96875 4.68229C6.61458 1.56076 10.2708 0 14.9375 0C16.2292 0 17.5469 0.270616 18.8906 0.811849C20.2344 1.35308 21.4844 2.08312 22.6406 3.00195C23.7969 3.92079 24.7917 4.78299 25.625 5.58854C26.4583 6.3941 27.25 7.25 28 8.15625C28.75 7.25 29.5417 6.3941 30.375 5.58854C31.2083 4.78299 32.2031 3.92079 33.3594 3.00195C34.5156 2.08312 35.7656 1.35308 37.1094 0.811849C38.4531 0.270616 39.7708 0 41.0625 0C45.7292 0 49.3854 1.56076 52.0312 4.68229C54.6771 7.80382 56 12.1337 56 17.6719C56 23.2352 53.6146 28.8993 48.8438 34.6641L29.375 57.3203C29 57.7734 28.5417 58 28 58Z" fill="#9F86C0"/>
</svg>
