<svg width="25" height="28" viewBox="0 0 25 28" fill="none" xmlns="http://www.w3.org/2000/svg">
<path d="M12.5 16.8C12.7472 16.8 12.9889 16.7179 13.1945 16.5641C13.4 16.4102 13.5602 16.1916 13.6549 15.9358C13.7495 15.6799 13.7742 15.3984 13.726 15.1269C13.6778 14.8553 13.5587 14.6058 13.3839 14.4101C13.2091 14.2143 12.9863 14.0809 12.7439 14.0269C12.5014 13.9729 12.2501 14.0006 12.0216 14.1066C11.7932 14.2125 11.598 14.392 11.4607 14.6222C11.3233 14.8524 11.25 15.1231 11.25 15.4C11.25 15.7713 11.3817 16.1274 11.6161 16.3899C11.8505 16.6525 12.1685 16.8 12.5 16.8ZM18.75 16.8C18.9972 16.8 19.2389 16.7179 19.4445 16.5641C19.65 16.4102 19.8102 16.1916 19.9049 15.9358C19.9995 15.6799 20.0242 15.3984 19.976 15.1269C19.9277 14.8553 19.8087 14.6058 19.6339 14.4101C19.4591 14.2143 19.2363 14.0809 18.9939 14.0269C18.7514 13.9729 18.5001 14.0006 18.2716 14.1066C18.0432 14.2125 17.848 14.392 17.7107 14.6222C17.5733 14.8524 17.5 15.1231 17.5 15.4C17.5 15.7713 17.6317 16.1274 17.8661 16.3899C18.1005 16.6525 18.4185 16.8 18.75 16.8ZM12.5 22.4C12.7472 22.4 12.9889 22.3179 13.1945 22.1641C13.4 22.0102 13.5602 21.7916 13.6549 21.5358C13.7495 21.2799 13.7742 20.9984 13.726 20.7269C13.6778 20.4553 13.5587 20.2058 13.3839 20.01C13.2091 19.8143 12.9863 19.6809 12.7439 19.6269C12.5014 19.5729 12.2501 19.6006 12.0216 19.7066C11.7932 19.8125 11.598 19.992 11.4607 20.2222C11.3233 20.4524 11.25 20.7231 11.25 21C11.25 21.3713 11.3817 21.7274 11.6161 21.99C11.8505 22.2525 12.1685 22.4 12.5 22.4ZM18.75 22.4C18.9972 22.4 19.2389 22.3179 19.4445 22.1641C19.65 22.0102 19.8102 21.7916 19.9049 21.5358C19.9995 21.2799 20.0242 20.9984 19.976 20.7269C19.9277 20.4553 19.8087 20.2058 19.6339 20.01C19.4591 19.8143 19.2363 19.6809 18.9939 19.6269C18.7514 19.5729 18.5001 19.6006 18.2716 19.7066C18.0432 19.8125 17.848 19.992 17.7107 20.2222C17.5733 20.4524 17.5 20.7231 17.5 21C17.5 21.3713 17.6317 21.7274 17.8661 21.99C18.1005 22.2525 18.4185 22.4 18.75 22.4ZM6.25 16.8C6.49723 16.8 6.7389 16.7179 6.94446 16.5641C7.15002 16.4102 7.31024 16.1916 7.40485 15.9358C7.49946 15.6799 7.52421 15.3984 7.47598 15.1269C7.42775 14.8553 7.3087 14.6058 7.13388 14.4101C6.95907 14.2143 6.73634 14.0809 6.49386 14.0269C6.25139 13.9729 6.00005 14.0006 5.77165 14.1066C5.54324 14.2125 5.34801 14.392 5.21066 14.6222C5.07331 14.8524 5 15.1231 5 15.4C5 15.7713 5.1317 16.1274 5.36612 16.3899C5.60054 16.6525 5.91848 16.8 6.25 16.8ZM21.25 2.8H20V1.4C20 1.0287 19.8683 0.672601 19.6339 0.41005C19.3995 0.1475 19.0815 0 18.75 0C18.4185 0 18.1005 0.1475 17.8661 0.41005C17.6317 0.672601 17.5 1.0287 17.5 1.4V2.8H7.5V1.4C7.5 1.0287 7.3683 0.672601 7.13388 0.41005C6.89946 0.1475 6.58152 0 6.25 0C5.91848 0 5.60054 0.1475 5.36612 0.41005C5.1317 0.672601 5 1.0287 5 1.4V2.8H3.75C2.75544 2.8 1.80161 3.2425 1.09835 4.03015C0.395088 4.8178 0 5.88609 0 7V23.8C0 24.9139 0.395088 25.9822 1.09835 26.7698C1.80161 27.5575 2.75544 28 3.75 28H21.25C22.2446 28 23.1984 27.5575 23.9017 26.7698C24.6049 25.9822 25 24.9139 25 23.8V7C25 5.88609 24.6049 4.8178 23.9017 4.03015C23.1984 3.2425 22.2446 2.8 21.25 2.8ZM22.5 23.8C22.5 24.1713 22.3683 24.5274 22.1339 24.7899C21.8995 25.0525 21.5815 25.2 21.25 25.2H3.75C3.41848 25.2 3.10054 25.0525 2.86612 24.7899C2.6317 24.5274 2.5 24.1713 2.5 23.8V11.2H22.5V23.8ZM22.5 8.4H2.5V7C2.5 6.6287 2.6317 6.2726 2.86612 6.01005C3.10054 5.7475 3.41848 5.6 3.75 5.6H21.25C21.5815 5.6 21.8995 5.7475 22.1339 6.01005C22.3683 6.2726 22.5 6.6287 22.5 7V8.4ZM6.25 22.4C6.49723 22.4 6.7389 22.3179 6.94446 22.1641C7.15002 22.0102 7.31024 21.7916 7.40485 21.5358C7.49946 21.2799 7.52421 20.9984 7.47598 20.7269C7.42775 20.4553 7.3087 20.2058 7.13388 20.01C6.95907 19.8143 6.73634 19.6809 6.49386 19.6269C6.25139 19.5729 6.00005 19.6006 5.77165 19.7066C5.54324 19.8125 5.34801 19.992 5.21066 20.2222C5.07331 20.4524 5 20.7231 5 21C5 21.3713 5.1317 21.7274 5.36612 21.99C5.60054 22.2525 5.91848 22.4 6.25 22.4Z" fill="#BE95C4"/>
</svg>
