<svg width="64" height="63" viewBox="0 0 64 63" fill="none" xmlns="http://www.w3.org/2000/svg">
<g clip-path="url(#clip0_206_253)">
<path d="M26 34.9C30.7128 34.9 34.5333 31.1392 34.5333 26.5C34.5333 21.8608 30.7128 18.1 26 18.1C21.2872 18.1 17.4667 21.8608 17.4667 26.5C17.4667 31.1392 21.2872 34.9 26 34.9Z" fill="#9F86C0"/>
<path d="M18 0.25L13.12 5.5H4.66671C1.72004 5.5 -0.666626 7.84937 -0.666626 10.75V42.25C-0.666626 45.1506 1.72004 47.5 4.66671 47.5H47.3334C50.28 47.5 52.6667 45.1506 52.6667 42.25V10.75C52.6667 7.84937 50.28 5.5 47.3334 5.5H38.88L34 0.25H18ZM26 39.625C18.64 39.625 12.6667 33.745 12.6667 26.5C12.6667 19.255 18.64 13.375 26 13.375C33.36 13.375 39.3334 19.255 39.3334 26.5C39.3334 33.745 33.36 39.625 26 39.625Z" fill="#9F86C0"/>
</g>
<defs>
<clipPath id="clip0_206_253">
<rect width="64" height="63" fill="white"/>
</clipPath>
</defs>
</svg>
