<svg width="56" height="58" viewBox="0 0 56 58" fill="none" xmlns="http://www.w3.org/2000/svg">
<path d="M53.4511 40.4795C51.8711 39.6674 50.909 38.1571 50.909 36.5332V26.0547C50.909 16.7387 43.8897 8.88204 34.3018 6.44559C34.3425 6.18664 34.3631 5.92552 34.3636 5.66406C34.3636 2.53591 31.5144 0 27.9999 0C24.4854 0 21.6363 2.53591 21.6363 5.66406C21.6363 5.92937 21.6584 6.19003 21.698 6.44559C12.11 8.88204 5.09083 16.7387 5.09083 26.0547V36.5332C5.09083 38.1571 4.12877 39.6674 2.5488 40.4795C1.05208 41.2488 0.0361847 42.6764 0.0009301 44.3179C-0.0539245 46.8688 2.32493 48.9375 5.19137 48.9375H17.8181C17.8181 53.9426 22.3766 58 27.9999 58C33.6232 58 38.1818 53.9426 38.1818 48.9375H50.8085C53.6751 48.9375 56.0539 46.8688 55.9991 44.3178C55.9637 42.6764 54.9478 41.2486 53.4511 40.4795Z" fill="#9F86C0"/>
</svg>
