<svg width="56" height="58" viewBox="0 0 56 58" fill="none" xmlns="http://www.w3.org/2000/svg">
<path d="M28.0004 0L0 25.1196H9.54842V58H21.6172C18.4646 55.8282 16.3841 52.0945 16.3841 47.8523C16.3841 41.144 21.5849 35.7083 28.0004 35.7083C34.4159 35.7083 39.6159 41.1448 39.6159 47.8523C39.6159 52.0937 37.5354 55.8282 34.3836 58H46.4524V25.1196H56L28.0004 0ZM35.7948 26.4169C35.7948 27.3054 34.8385 28.0258 33.6599 28.0258C32.4813 28.0258 31.5251 27.3054 31.5251 26.4169C31.5251 26.3287 31.5345 26.2422 31.5527 26.1581H24.4481C24.4663 26.243 24.4757 26.3287 24.4757 26.4169C24.4757 27.3054 23.5202 28.0258 22.3409 28.0258C21.1623 28.0258 20.206 27.3054 20.206 26.4169C20.206 25.8515 20.5931 25.3545 21.1781 25.0677C20.5931 24.7808 20.206 24.2838 20.206 23.7176C20.206 22.8291 21.1615 22.1087 22.3409 22.1087C23.5202 22.1087 24.4757 22.8291 24.4757 23.7176C24.4757 23.8058 24.4663 23.8932 24.4481 23.9772H31.5527C31.5345 23.8923 31.5251 23.8058 31.5251 23.7176C31.5251 22.8291 32.4813 22.1087 33.6599 22.1087C34.8385 22.1087 35.7948 22.8291 35.7948 23.7176C35.7948 24.2838 35.4069 24.7808 34.8227 25.0677C35.4069 25.3545 35.7948 25.8523 35.7948 26.4169Z" fill="#9F86C0"/>
</svg>
