<svg width="29" height="26" viewBox="0 0 29 26" fill="none" xmlns="http://www.w3.org/2000/svg">
<path d="M14.5001 25.4795C16.3792 25.4819 18.1634 26.4999 20.0205 25.6816C21.496 25.0309 22.6549 23.4507 22.9146 21.3202C23.1474 19.411 22.4711 17.6406 21.3272 16.1214C17.7308 11.346 11.2693 11.346 7.67294 16.1214C6.52909 17.6406 5.85377 19.4098 6.08553 21.3202C6.34427 23.4507 7.50411 25.0321 8.97962 25.6816C10.8368 26.4999 12.621 25.4831 14.5001 25.4795Z" fill="#BE95C4"/>
<path d="M10.7452 8.90378C12.3283 8.53504 13.3121 6.39243 12.9426 4.11813C12.5731 1.84382 10.9903 0.299053 9.40729 0.66779C7.82426 1.03653 6.84047 3.17914 7.20993 5.45344C7.57939 7.72775 9.16221 9.27252 10.7452 8.90378Z" fill="#BE95C4"/>
<path d="M3.65656 14.4969C5.03276 14.1767 5.88766 12.3137 5.56603 10.3358C5.2444 8.35794 3.86804 7.01417 2.49183 7.3344C1.11563 7.65464 0.260733 9.51762 0.582364 11.4955C0.903995 13.4734 2.28036 14.8171 3.65656 14.4969Z" fill="#BE95C4"/>
<path d="M21.79 5.45343C22.1594 3.17911 21.1755 1.03656 19.5924 0.667918C18.0094 0.29928 16.4266 1.84415 16.0573 4.11848C15.6879 6.3928 16.6718 8.53535 18.2549 8.90399C19.8379 9.27263 21.4207 7.72776 21.79 5.45343Z" fill="#BE95C4"/>
<path d="M28.4184 11.4956C28.7396 9.51763 27.8844 7.65439 26.5083 7.33393C25.1321 7.01347 23.7561 8.35713 23.4349 10.3351C23.1136 12.3131 23.9688 14.1763 25.345 14.4968C26.7211 14.8172 28.0972 13.4735 28.4184 11.4956Z" fill="#BE95C4"/>
</svg>
