<svg width="334" height="262" viewBox="0 0 334 262" fill="none" xmlns="http://www.w3.org/2000/svg">
<path d="M141.783 59.46H175.517L182.197 59.624V77.5L182.03 78.976L181.529 79.468L180.694 79.304L179.525 77.992L178.189 75.368L175.35 69.3L173.847 66.02L172.177 63.232L170.841 62.084L169.839 62.248L169.004 63.232L168.837 76.024V102.92L169.004 107.84L169.839 110.3L170.173 110.792L170.006 110.956H153.473L153.807 110.3L154.308 109.48L154.642 108.496L154.976 105.872L152.638 106.856L151.469 107.02L150.634 106.036L150.467 105.216L151.469 103.084V101.116L151.135 99.968L151.803 98.656L152.137 98.492L153.64 98.656L154.976 99.312L154.809 63.724L154.141 62.412L153.64 62.084H152.805L151.636 63.068L149.966 65.856L147.962 70.12L145.791 75.04L144.288 77.828L143.119 79.304L142.284 79.468L141.783 78.976L141.616 78.484V59.624L141.783 59.46Z" fill="#9F86C0"/>
<path d="M32.2309 59.46H62.4579L62.6249 59.624V78.484L62.1239 79.304L61.2889 79.468L60.4539 78.648L59.1179 76.352L57.2809 72.58L55.4439 68.48L53.7739 65.036L52.4379 63.068L51.4359 62.084H50.4339L49.5989 62.904L49.4319 63.232L49.2649 102.264L49.4319 108.004L50.0999 109.644L50.7679 110.792L50.6009 110.956H33.9009L34.7359 109.316L35.2369 107.512L35.0699 106.692L34.7359 105.872L35.5709 103.904L35.4039 94.884V69.136L35.2369 63.724L34.5689 62.412L34.0679 62.084H33.2329L32.2309 62.904L30.8949 65.036L29.5589 67.66L28.3899 70.12L26.2189 75.04L24.5489 78.156L23.5469 79.304L22.7119 79.468L22.2109 78.976L22.0439 78.484V59.788L22.2109 59.624L32.2309 59.46Z" fill="#9F86C0"/>
<path d="M79.993 74.384H85.671L87.842 74.712L90.681 75.532L92.685 76.352L94.689 77.664L96.526 79.14L98.0289 80.944L99.0309 82.584L100.033 84.716L100.701 87.34L100.868 90.62V98.164L102.538 98.492L103.373 98.984L103.54 99.64L103.039 100.624L102.538 101.116L101.035 101.444V101.936L102.371 102.92L102.872 103.412L103.039 104.396L102.705 105.052L101.536 105.38H100.868L101.369 108.496L102.037 110.3L102.204 110.792L95.524 110.956H89.178L88.176 110.464L87.174 108.824L86.506 107.184H85.17L83.667 108.168L81.83 109.644L79.826 110.792L76.653 111.612H72.979L70.474 110.792L68.804 109.808L66.967 108.004L65.798 105.872L65.464 104.396V100.624L66.132 98L66.633 96.196L65.464 96.688L64.462 96.524L64.128 96.196V94.392L64.295 93.736V92.588L63.46 90.62V89.308L64.128 88.816H65.464L67.635 89.636L68.804 90.62L69.639 92.26L70.474 91.768L71.142 91.112L70.975 89.8L71.81 88.652L72.645 88.16L74.315 87.996L75.15 88.16L77.822 86.848L80.995 85.7L83.166 85.044L85.17 84.552L86.506 83.732L86.84 83.24V80.616L86.172 78.812L85.17 77.664L83.667 77.172H81.162L79.492 77.828L77.655 78.976L75.651 80.944L73.48 83.732L71.643 85.864L71.476 86.028V87.176L70.808 88.16L69.973 88.816L68.303 89.144L67.635 88.816L67.468 88.488V87.34L67.635 87.012V80.288L68.136 78.976L68.804 78.156L70.474 77.008L73.146 75.696L74.649 75.204L78.156 74.548L79.993 74.384ZM84.001 87.832L82.665 88.324L80.828 89.636L79.492 91.276L78.49 93.408L77.989 95.212L77.822 97.016V99.968L78.156 101.936L78.991 103.576L79.659 104.396L80.995 105.216L81.496 105.38H83.834L85.504 104.56L86.506 103.084L87.007 101.444V89.472L86.506 88.16L86.005 87.832H84.001Z" fill="#9F86C0"/>
<path d="M199.565 74.384H205.243L207.581 74.712L210.42 75.532L213.593 77.172L215.263 78.484L216.599 79.632L218.269 81.928L219.438 84.224L220.273 87.012L220.44 90.292V103.412L220.607 107.02L221.108 109.644L221.776 110.464V110.792L217.935 110.956H208.75L207.915 110.464L207.247 109.644L206.245 107.348L206.078 107.184H204.742L203.072 108.332L200.901 109.972L198.73 110.956L195.891 111.612H192.885L191.215 111.284L188.543 109.972L187.04 108.66L185.704 106.692L185.203 105.216L185.036 104.396V101.28L185.37 98.984L185.871 97.508L185.036 96.688L184.201 96.032V95.048L185.036 94.228L185.537 94.064H186.873L187.875 94.228L187.374 93.408L187.04 92.916L187.207 92.096L187.875 91.44L191.048 90.784L192.551 89.636L194.388 88.324L196.893 87.012L199.899 85.864L204.742 84.552L205.911 83.896H206.245L206.412 83.24V80.616L205.744 78.812L204.742 77.664L203.406 77.172H200.734L198.73 77.992L197.227 78.976L195.056 81.108L192.885 83.896L190.881 86.192L190.38 87.012L191.382 87.34L192.217 88.16L192.05 89.308L191.215 89.964L189.712 90.62H188.376L186.873 89.964L186.706 88.816L187.875 87.504H187.541L186.539 88.16L186.038 88.324H184.201L183.199 87.996L183.032 87.832V86.848L183.7 85.864L185.37 85.044L187.04 84.88V81.6L187.374 79.632L188.376 78.156L190.213 76.844L192.217 75.86L194.889 75.04L197.728 74.548L199.565 74.384ZM203.573 87.832L202.237 88.324L200.233 89.8L198.897 91.604L197.728 94.228L197.394 95.868V100.296L197.728 102.1L198.563 103.74L199.899 104.888L201.068 105.38H203.406L204.909 104.724L206.078 103.412L206.746 101.444L206.913 100.46V96.524L206.579 89.308L206.078 88.324L205.41 87.832H203.573Z" fill="#9F86C0"/>
<path d="M292.25 74.384H298.095L301.268 74.712L305.443 75.696L307.447 76.352L310.119 77.664L311.622 78.976L312.123 79.96V81.108L311.622 83.076L310.286 85.372L309.117 86.52L308.115 86.848L307.781 88.324L307.113 89.144L306.111 89.8L308.115 90.948L309.785 92.588L311.121 94.72L311.789 96.688L311.956 97.836V101.28L311.455 103.248L310.286 105.544L308.783 107.184L307.28 108.496L304.942 109.808L302.27 110.792L299.431 111.448L298.095 111.612H293.085L289.745 111.284L286.405 110.792L282.731 109.808L280.894 109.152L279.558 108.332L278.89 107.184L279.892 103.248L281.395 100.132L282.564 98.492L283.566 97.672L284.568 97.836L287.24 99.148L290.914 101.28L293.753 102.756L297.26 103.904L298.93 104.232L300.767 104.396H302.938L305.109 103.904L307.447 102.756L308.282 101.936L309.117 100.624L309.284 99.312L308.95 98.492L307.948 98H305.944L302.938 98.328L300.433 98.492H296.091L292.584 98.164L289.745 97.508L287.741 96.852L284.735 95.54L282.063 93.572L280.727 92.096L279.558 90.128L278.89 88.16L278.723 87.34V83.24L279.391 81.108L280.56 79.468L281.896 77.992L284.067 76.516L286.739 75.368L290.413 74.548L292.25 74.384ZM288.743 77.172L286.906 77.5L285.403 78.484L284.401 80.124L284.568 81.6L285.236 82.584L286.238 83.404L287.908 84.224L291.749 85.208L296.258 86.192L298.763 87.012L299.932 87.668L300.433 87.504L299.598 87.012L299.932 86.028L300.934 84.552L300.266 83.896L298.095 82.256L296.425 80.78L293.419 78.648L290.58 77.336L288.743 77.172ZM303.606 86.028L302.103 87.504L301.936 87.996L302.604 88.324L303.439 88.16L304.608 86.848L304.441 86.028H303.606Z" fill="#9F86C0"/>
<path d="M258.85 74.384H263.192L265.697 74.712L268.202 75.532L270.707 77.008L272.711 78.812L274.214 80.78L275.383 83.24L276.218 86.52V88.98L275.55 91.112L274.715 92.26L272.878 93.408L271.041 94.064L269.705 94.392L268.035 94.556H254.842L254.508 94.72V95.868L255.677 97.18L257.681 98.656L260.186 100.132L263.359 101.444L267.2 102.756L267.367 101.444L267.033 99.476L267.367 98.492L267.868 98.164L269.037 98.328L270.707 99.148L271.876 100.296L272.544 101.608L273.045 102.92L273.212 102.1L273.379 101.772H274.047L274.381 100.788L275.216 99.968L276.719 99.312L278.055 99.476L279.057 100.132L279.224 101.28L278.222 102.1L275.884 102.756L275.717 103.084L277.22 103.412L278.389 104.232L278.556 104.56V105.708L277.888 106.364L276.719 106.528L275.216 106.036L273.88 105.38L274.548 106.692V107.84L274.047 108.332L272.878 108.496L271.876 108.332L271.208 109.152L268.703 110.464L266.031 111.284L264.361 111.612H259.351L255.51 110.628L252.838 109.48L250.834 108.332L248.663 106.692L246.993 105.052L245.824 103.412L244.154 100.46L243.319 98.164V97.016L241.649 95.54L241.482 94.884L242.15 94.064L242.818 93.408L243.319 89.964L243.82 87.668L243.987 86.684L242.985 87.34L242.317 87.832L241.816 87.996H240.647L240.146 87.504L240.313 86.356L240.981 85.372L241.482 84.88L242.985 84.716L243.987 85.536V85.864L244.488 85.372L245.49 82.912L247.494 80.124L249.164 78.484L251.168 77.008L253.673 75.696L256.679 74.712L258.85 74.384ZM253.339 79.796L251.502 80.452L250.166 81.272L249.164 82.42L248.663 83.732V86.684L249.331 88.816L250.333 90.292L251.669 91.44L253.339 92.096H259.017L262.524 91.44L264.194 90.62L265.196 89.472L265.53 88.324L265.363 86.684L264.528 84.716L263.526 83.404L262.691 82.584L261.355 81.6L259.351 80.616L257.18 79.96L256.011 79.796H253.339Z" fill="#9F86C0"/>
<path d="M135.771 58.804H137.107L137.942 59.296L138.109 60.772V99.312L138.276 107.512L138.944 109.808L139.445 110.792L138.944 110.956H126.92L125.751 110.628L124.749 109.316L124.415 108.496V95.868L123.079 96.524H121.91L121.409 95.704L121.576 92.752L121.075 91.604L120.407 90.292V89.472L121.242 88.652L124.081 88.98L124.248 86.684V68.48L123.747 67.004L123.079 66.184L121.409 65.2V64.708L124.582 63.068L129.258 60.936L133.266 59.46L135.771 58.804Z" fill="#9F86C0"/>
<path d="M236.639 58.804H237.975L238.81 59.296L238.977 59.952V87.996L240.48 88.652L241.816 89.8L242.317 90.62V92.424L241.148 93.9L239.979 95.048L238.977 95.376L239.144 107.512L239.812 109.808L240.313 110.464V110.792L239.645 110.956H228.122L226.953 110.792L226.118 110.136L225.45 109.152L225.283 108.496L225.116 73.728L224.949 67.988L224.281 66.676L223.446 66.02L221.943 65.2L222.277 64.544L227.12 62.248L231.796 60.28L234.802 59.296L236.639 58.804Z" fill="#9F86C0"/>
<path d="M116.9 74.384H118.236L119.071 74.712L119.238 75.04L119.405 77.172V101.28L119.572 107.676L120.24 109.808L120.574 110.792L120.24 110.956H106.212L104.208 110.792L104.876 109.644L105.377 107.676L105.544 105.38V83.568L105.043 82.256L104.375 81.436L103.039 80.616L103.206 80.124L107.381 77.992L112.725 75.696L115.898 74.548L116.9 74.384Z" fill="#9F86C0"/>
<path d="M110.554 56.672H113.727L115.731 57.164L117.234 57.984L118.403 59.132L119.238 60.444L119.906 62.412L120.073 64.38L119.739 66.348L118.57 68.644L117.401 69.956L116.065 70.776L114.061 71.432L112.391 71.596L110.22 71.268L108.049 70.448L106.546 69.136L105.377 67.168L104.876 65.528V62.412L105.377 60.772L106.379 59.132L107.381 57.984L109.385 57L110.554 56.672Z" fill="#9F86C0"/>
<path d="M35.571 88.16L35.905 88.816V98.328L36.072 98.82H37.408L38.41 99.148V99.476H39.579L39.913 98.492L40.581 98.328V98L42.251 97.344L43.754 97.508L44.589 98.328L44.923 99.312L44.756 99.64L45.591 99.968L46.259 100.296L47.094 100.46L47.929 101.28L48.263 101.772V102.756L48.597 103.084L48.764 102.756H49.098V104.888V105.216L49.432 108.004L50.1 109.644L50.768 110.792L50.601 110.956H33.901L34.736 109.316L35.237 107.512L35.07 106.692L34.736 105.872L35.571 103.904V88.16Z" fill="#9F86C0"/>
<path d="M155.143 69.464L155.477 69.628V76.188L155.644 86.684L155.477 90.62L155.644 93.572L155.477 96.524V97.508L156.145 97.344L157.648 96.688H158.984L159.986 97.18L160.487 98.164V98.984H160.821V99.312L161.322 99.148V99.476L162.825 99.804L163.827 100.952V102.1L162.825 103.248H162.491L162.658 104.068L163.326 105.708L163.159 106.692L162.491 107.348L161.99 107.512H160.821L159.485 107.348L159.318 107.512L159.485 108.496L159.819 108.824L158.984 109.644V109.972L160.487 110.136H162.658L165.998 110.3L167.501 110.464L168.169 110.628L168.336 110.3L168.67 110.464L168.837 110.136H169.672L170.173 110.792L170.006 110.956H153.473L153.807 110.3L154.308 109.48L154.642 108.496L154.976 105.872L152.638 106.856L151.469 107.02L150.634 106.036L150.467 105.216L151.469 103.084V101.116L151.135 99.968L151.803 98.656L152.137 98.492L153.64 98.656L154.976 99.312L155.143 89.636V69.464Z" fill="#9F86C0"/>
<path d="M220.106 93.244H220.273L220.44 103.412V107.184L219.939 106.528L219.772 104.888L220.106 103.576H219.772L219.605 102.92L219.772 102.264L219.605 101.116L219.772 100.788H219.438V100.46H218.603L217.935 101.28L218.937 102.592V102.92H219.271L218.937 104.068L218.102 104.724L217.768 104.888H215.263L214.595 106.692L213.927 107.184H212.758L211.088 106.364L210.921 105.872H210.587L210.086 105.052V104.56L209.084 104.396L208.249 104.724H206.078L205.577 104.56V104.888L204.909 104.56L205.911 103.412L206.579 101.444L206.746 100.46L206.913 94.884L207.581 95.048L207.748 95.376L208.583 95.704L210.42 95.868L211.255 95.048L211.589 94.556L213.426 94.392H214.929L215.931 95.54L215.764 96.688L217.768 97.016L218.937 97.672L219.271 98.492H219.605L219.772 96.688V95.54L219.939 95.048L220.106 93.244Z" fill="#9F86C0"/>
<path d="M100.033 86.356L100.534 86.52L100.701 87.34L100.868 90.62V98.164L102.538 98.492L103.373 98.984L103.54 99.64L103.039 100.624L102.538 101.116L101.035 101.444V101.936L102.371 102.92L102.872 103.412L103.039 104.396L102.705 105.052L101.536 105.38H100.868L101.035 108.168L100.868 107.84H100.534L100.2 107.184L99.365 107.02L98.196 108.004H96.86L96.025 107.676L95.524 107.348V107.02L95.023 106.856L94.522 105.872V105.216H94.188V104.888L93.186 105.38H91.015L90.347 104.56V103.084L90.848 101.772L91.015 99.968L90.848 98.328L91.349 97.016L92.184 96.688H93.353L95.023 96.852L95.357 96.36H95.691L96.025 95.704L96.526 95.212L98.53 94.884L99.866 95.048L100.033 93.736L100.2 93.572V87.34L100.033 86.356Z" fill="#9F86C0"/>
<path d="M301.268 84.552H303.105L303.606 85.208L303.773 85.864L302.604 87.176L302.103 87.996L303.272 88.16L304.441 86.848L305.61 86.52H306.779L307.781 87.176L307.948 87.996L307.113 89.144L306.111 89.8L308.115 90.948L309.785 92.588L311.121 94.72L311.789 96.688L311.956 97.836V101.28L311.622 102.756L311.121 103.084L310.954 102.756L311.121 101.444L310.954 100.788L311.121 99.64H311.622L311.455 99.312H311.789V98.984H311.455L311.288 97.508L310.954 95.868L309.952 94.228L309.618 93.572L308.783 93.408L308.282 93.736H307.614V94.064H305.777L305.443 95.048L305.276 96.032L304.274 96.688L304.107 97.016L301.769 96.852L300.934 96.688L301.101 96.196L300.433 95.868L300.099 95.048L299.264 95.212L298.095 95.54H296.759L296.091 94.884L295.924 93.244L296.091 91.768V90.62L295.59 89.8L295.423 87.996L296.091 86.848H295.757L295.256 86.356L292.918 86.028L291.749 85.7L290.246 85.372L289.578 85.044L289.411 84.716L291.081 84.88L296.258 86.028L298.763 86.848L299.765 87.34L299.431 86.684L300.433 85.044L301.268 84.552Z" fill="#9F86C0"/>
<path d="M124.415 84.88L124.916 85.372L126.586 85.208L128.089 85.372L128.59 86.52L128.757 87.012H130.26L130.761 86.848L132.097 87.176L132.765 87.832L132.932 88.98L131.93 90.456V90.948L133.266 91.932L133.6 92.424V93.408L132.932 94.228L131.763 94.884L130.093 95.048L130.427 96.196L130.093 97.016L129.258 97.672H126.92L125.751 97.016V96.688H124.749L124.916 105.052L124.749 108.66L124.415 108.496V95.868L123.079 96.524H121.91L121.409 95.704L121.576 92.752L121.075 91.604L120.407 90.292V89.472L121.242 88.652L124.081 88.98L124.415 84.88Z" fill="#9F86C0"/>
<path d="M85.838 84.224H86.339V84.552L85.504 85.044L85.337 85.372L83.333 85.536L82.999 86.028L82.498 85.864L80.995 86.52L79.325 86.848L78.657 87.176L78.49 87.504L77.822 87.668L77.321 87.996H76.653V88.324H76.152L76.319 88.816H75.985V89.8L75.317 90.948L75.15 91.604L75.484 92.26L76.486 93.08L76.319 94.228L75.484 95.048L74.983 95.376L73.146 95.704L72.645 95.54L72.979 97.016L72.645 97.672L71.81 98.164H70.14L68.637 97.508L68.47 97.016L67.468 97.344V97.016L66.8 96.852V96.196L65.464 96.688L64.462 96.524L64.128 96.196V94.392L64.295 93.736V92.588L63.46 90.62V89.308L64.128 88.816H65.464L67.635 89.636L68.804 90.62L69.639 92.26L70.474 91.768L71.142 91.112L70.975 89.8L71.81 88.652L72.645 88.16L74.315 87.996L75.15 88.16L77.822 86.848L80.995 85.7L83.166 85.044L85.17 84.552L85.838 84.224Z" fill="#9F86C0"/>
<path d="M267.868 98L269.037 98.164L270.707 98.984L271.876 100.132L272.544 101.444L273.045 102.756L273.212 101.936L273.379 101.608H274.047L274.381 100.624L275.216 99.804L276.719 99.148L278.055 99.312L279.057 99.968L279.224 101.116L278.222 101.936L275.884 102.592L275.717 102.92L277.22 103.248L278.389 104.068L278.556 104.396V105.544L277.888 106.2L276.719 106.364L275.216 105.872L273.88 105.216L274.548 106.528V107.676L274.047 108.168L272.878 108.332L271.876 108.168L271.208 108.988L269.037 110.136H268.202L268.87 109.48V109.152L270.373 108.66L270.707 108.824L270.54 108.168H270.874L270.373 107.512L269.872 106.036L268.369 106.364H266.699L266.031 105.708L266.198 103.74V103.248L266.031 102.756L265.363 102.592L265.196 102.264H264.027L263.526 102.1V101.772L262.023 101.444L259.852 100.46V99.968L260.854 100.296L264.695 101.772L267.2 102.592L267.367 101.28L267.033 99.312L267.367 98.328L267.868 98Z" fill="#9F86C0"/>
<path d="M252.003 76.516L252.337 76.68L252.003 77.5L251.001 78.156H250.333L249.999 78.812L249.665 79.304H249.164L248.83 79.96L247.995 80.78V81.928H247.327L246.826 82.42H246.492L246.325 83.732L245.991 84.552V85.372L246.659 85.864L247.661 85.7V85.044L248.329 84.88L248.496 84.388L248.663 86.192L249.498 88.816L250.5 90.292L251.669 91.276L252.17 91.604L252.003 91.932L250.667 91.44L250.5 91.112L248.83 90.784L249.164 91.604V92.752L247.828 93.9L246.492 94.392H245.991V96.032L245.824 96.36H245.49V96.688L244.655 97.016L244.321 97.836L243.82 98L243.486 98.328L243.319 98.164V97.016L241.649 95.54L241.482 94.884L242.15 94.064L242.818 93.408L243.319 89.964L243.82 87.668L243.987 86.684L242.985 87.34L242.317 87.832L241.816 87.996H240.647L240.146 87.504L240.313 86.356L240.981 85.372L241.482 84.88L242.985 84.716L243.987 85.536V85.864L244.488 85.372L245.49 82.912L247.494 80.124L249.164 78.484L251.168 77.008L252.003 76.516Z" fill="#9F86C0"/>
<path d="M158.65 122.764H161.656L162.324 123.092L162.992 124.896L163.326 126.536L163.66 126.372L164.662 123.584L164.996 122.928L165.33 122.764H168.503V132.44L168.336 132.604H165.831L165.664 131.948V124.568L164.829 125.388L163.994 128.012L163.159 131.456H162.658L161.99 129.98L160.487 125.88L160.153 124.896L159.485 124.732V126.7L159.819 128.012L161.489 131.292V132.276L161.322 132.44L159.318 132.604L158.817 132.44L158.65 122.764Z" fill="#9F86C0"/>
<path d="M176.519 125.716H178.523L179.191 126.7L180.026 126.372L180.527 125.716H182.197L183.032 126.7L184.034 126.536L184.869 125.716H186.539L187.207 126.536L187.374 127.028L187.541 132.44L187.374 132.604H184.702V127.848L184.535 127.52L183.533 127.684L183.366 128.012V132.44L183.199 132.604H180.527V127.52L179.358 127.684L179.191 127.848L179.024 129.16V130.636L179.191 132.604H176.352V125.88L176.519 125.716Z" fill="#9F86C0"/>
<path d="M152.137 98L153.64 98.164L154.976 98.82V99.148L155.644 99.476L156.813 101.116L156.98 102.264L156.646 103.576L155.978 104.56L155.644 105.216L157.481 105.544L158.65 106.528L158.984 107.348L158.817 108.332L157.815 108.824L156.312 108.66L154.976 107.84V105.38L152.638 106.364L151.469 106.528L150.634 105.544L150.467 104.724L151.469 102.592V100.624L151.135 99.476L151.803 98.164L152.137 98Z" fill="#050307"/>
<path d="M200.901 76.188L201.068 76.516L201.736 76.188L202.237 76.352V76.68L202.738 76.844L201.068 77.008L198.897 77.828L197.06 79.14L195.056 81.108L192.885 83.896L190.881 86.192L190.38 87.012L191.382 87.34L192.217 88.16L192.05 89.308L191.215 89.964L189.712 90.62H188.376L186.873 89.964L186.706 88.816L187.875 87.504H187.541L186.539 88.16L186.038 88.324H184.201L183.199 87.996L183.032 87.832V86.848L183.7 85.864L185.37 85.044L187.04 84.88V81.6L187.708 81.928L187.541 83.076L187.708 85.044L188.543 85.208L189.545 84.88L190.213 84.552L190.881 83.896H191.215L191.382 83.568L191.883 83.076H192.217L192.551 82.42L193.386 81.764H193.72L194.054 80.944H194.388L194.555 80.288L195.223 80.124L195.39 79.632L195.891 79.14L196.392 78.32L197.06 78.156V77.828L197.895 77.336L199.565 77.008V76.68L200.567 76.516H200.901V76.188Z" fill="#9F86C0"/>
<path d="M79.993 74.384H85.671L87.842 74.712L90.681 75.532L92.685 76.352L94.689 77.664L96.526 79.14L98.029 80.944L99.031 82.584L100.033 84.716V85.864L99.699 85.208L98.864 83.404V83.076H98.53L98.029 81.928L97.862 81.436H97.528V81.108H97.194L96.192 79.796L94.856 78.648L93.854 77.992V77.5L93.186 77.336L91.85 76.68L90.514 76.188V75.86L89.512 75.696L87.842 75.204L87.508 75.368L87.007 75.04H84.335V74.876H82.164L80.494 75.204H79.659V74.876L78.49 75.04L77.655 75.204L76.82 75.532V75.204L75.651 75.696L74.315 76.024L72.311 76.844H71.977V77.172L71.142 77.336L70.808 77.992L69.973 78.156V78.484L69.138 78.976L68.971 79.304H68.637L68.804 79.796L68.303 79.96L68.136 82.256V85.372H69.305V85.044L69.973 84.88L70.307 85.044H70.975V84.224L71.643 84.06L71.977 83.404H72.311V83.076L73.313 82.912L73.647 81.928L73.814 81.6H74.315L74.482 80.944L74.649 80.616H74.983V80.288L75.651 79.796V79.304L77.154 78.32L77.655 77.828L78.49 77.172H79.158V76.844L79.826 76.68L80.327 76.516L80.661 77.172L78.323 78.484L76.653 79.96L74.816 81.928L72.812 84.552L71.476 86.028V87.176L70.808 88.16L69.973 88.816L68.303 89.144L67.635 88.816L67.468 88.488V87.34L67.635 87.012V80.288L68.136 78.976L68.804 78.156L70.474 77.008L73.146 75.696L74.649 75.204L78.156 74.548L79.993 74.384Z" fill="#9F86C0"/>
<path d="M179.859 87.996H182.03L183.533 88.488L184.869 89.144L185.871 90.456L186.038 90.948V92.424L185.036 93.9L183.867 95.048L182.197 95.868H180.193L179.692 95.376V94.064L180.026 92.752L179.859 91.604L179.024 89.636V88.652L179.859 87.996Z" fill="#060308"/>
<path d="M117.067 122.6L118.904 122.764L120.407 122.928L121.409 122.764V123.584L120.24 125.224L119.405 126.536V127.356L120.24 127.684V128.504L119.238 129.324L118.236 129.16L117.568 128.34V127.356L118.737 126.044L119.071 125.388L117.735 124.732L116.566 124.24L115.564 124.076L115.23 125.388L115.397 127.028L116.566 129.324L117.401 130.144L118.069 130.472H119.572L120.908 129.488L121.409 129.16L121.576 129.816L120.741 131.456L119.572 132.44L119.071 132.604H117.067L115.731 131.948L114.729 130.636L114.228 129.488L114.061 128.668V126.7L114.562 124.896L115.397 123.42L117.067 122.6Z" fill="#9F86C0"/>
<path d="M36.406 99.312L37.909 99.476L39.245 100.132L40.414 101.116L41.082 102.428L41.249 103.412L40.915 104.396L40.247 105.38L38.744 106.364L37.241 107.02L35.571 107.184L34.736 106.2L35.07 105.216L35.571 103.904L35.738 99.968L36.406 99.312Z" fill="#030205"/>
<path d="M207.581 96.524H208.75L210.42 97.18L211.756 98.328L212.424 99.64V101.116L211.923 102.1L210.086 103.412L208.416 104.068H207.247L206.245 103.576L206.412 102.1L206.746 100.46L206.913 96.852L207.581 96.524Z" fill="#030204"/>
<path d="M121.242 88.652L123.914 88.98L125.584 89.964L126.252 90.784L126.586 91.44V92.916L125.751 94.228L124.081 96.032L123.079 96.524H121.91L121.409 95.704L121.576 92.752L121.075 91.604L120.407 90.292V89.472L121.242 88.652Z" fill="#060409"/>
<path d="M64.128 88.816H65.464L67.635 89.636L68.804 90.62L69.472 91.932L69.305 93.244L68.303 94.72L67.134 95.704L66.299 96.032V96.36L65.464 96.688L64.462 96.524L64.128 96.196V94.392L64.295 93.736V92.588L63.46 90.62V89.308L64.128 88.816Z" fill="#060408"/>
<path d="M267.868 98L269.037 98.164L270.707 98.984L271.876 100.132L272.544 101.444V102.92L271.542 104.232L270.54 104.888L268.703 105.708H267.2L266.699 105.38L266.532 104.724L266.866 103.74L267.2 102.92L267.367 101.28L267.033 99.312L267.367 98.328L267.868 98Z" fill="#050307"/>
<path d="M237.307 87.996L239.478 88.16L240.814 88.816L241.983 89.964L242.317 90.62V92.424L241.148 93.9L239.979 95.048L238.977 95.376L238.81 95.868L237.307 95.376L237.14 95.212V93.9L237.307 93.244V91.932L236.639 90.456L236.305 89.8V88.652L236.806 88.16L237.307 87.996Z" fill="#040206"/>
<path d="M92.351 97.1799L93.52 97.3439L94.856 97.9999L96.192 99.3119L96.86 100.952L96.526 102.428L95.357 103.576L94.355 104.232L92.685 104.888H91.683L90.848 104.232L91.182 102.756L91.683 101.608V99.9679L91.516 99.1479V97.9999L92.351 97.1799Z" fill="#030204"/>
<path d="M296.425 87.34L298.763 87.504L300.767 88.652L301.435 89.636L301.602 90.128V91.604L300.767 92.916L299.431 94.228L297.761 95.048L296.926 94.884L296.425 94.064L296.592 92.588L296.759 91.276L295.924 89.308V87.668L296.425 87.34Z" fill="#030204"/>
<path d="M137.608 125.716H140.447L141.449 126.208L142.451 127.356L142.785 129.816V132.604H140.447L140.113 131.948L139.278 132.112L138.777 132.604H136.773L136.105 131.948L135.938 130.8L136.773 129.16L138.109 128.176L139.946 127.356V126.208H138.61L137.775 126.864L136.94 128.012L136.272 127.848L136.439 126.536L137.274 125.88L137.608 125.716ZM139.278 128.176L138.443 128.832L138.109 129.324V130.8L138.944 131.62L139.946 131.292L140.113 131.128L140.28 129.324L140.113 128.176H139.278Z" fill="#9F86C0"/>
<path d="M215.43 125.552L218.102 125.716L219.605 126.208L219.939 126.536V127.52L219.271 128.176L218.77 128.34L220.106 129.816L219.939 131.292L219.271 132.112L218.269 132.604H214.595L213.927 132.44L213.76 131.62L214.428 130.144L215.263 130.308L217.601 131.456L218.77 131.292L219.271 130.8L219.438 130.308H216.766L215.096 129.816L213.927 128.996L213.76 128.668V127.028L214.428 126.044L215.43 125.552ZM215.096 126.044L214.762 127.028L215.096 127.52L217.768 128.176L218.436 128.012L216.766 126.536L215.931 126.044H215.096Z" fill="#9F86C0"/>
<path d="M190.881 125.716H193.052L194.388 126.372L195.223 127.684L195.39 128.176V130.308L194.555 131.62L193.553 132.44L191.883 132.768L190.046 132.44L188.877 131.292L188.543 130.472V128.176L189.378 126.864L190.547 125.88L190.881 125.716ZM191.382 126.044L190.714 126.7L190.547 128.668L191.048 131.292L191.716 132.112L192.718 132.276L193.219 131.784L193.386 130.8L193.052 127.848L192.217 126.208L191.382 126.044Z" fill="#9F86C0"/>
<path d="M131.262 125.716H133.433L134.268 126.208L134.936 126.864L135.27 127.684L135.103 128.996L134.435 129.324H131.095L131.596 130.144L132.598 130.8L134.101 130.964H135.604L135.103 131.62H134.769L134.435 132.276L133.767 132.604H131.262L130.093 131.948L129.258 130.964L128.924 129.816L129.091 128.176L129.926 126.536L130.761 125.88L131.262 125.716ZM130.761 126.536L130.093 127.192L129.926 128.34L130.26 128.996H132.431L133.099 128.832V127.848L132.097 126.7L130.761 126.536Z" fill="#9F86C0"/>
<path d="M171.676 125.716H173.68L174.515 126.208L175.183 127.028L175.517 128.012L175.35 128.996L174.682 129.324H171.342L172.01 130.308L173.346 130.964H174.682L175.35 130.8L175.183 131.62L174.515 132.44L174.181 132.604H171.509L170.34 131.948L169.338 130.636L169.171 130.308V128.34L169.839 127.028L170.507 126.208L171.676 125.716ZM171.175 126.536L170.34 127.028L170.173 128.504L170.841 128.996H172.678L173.513 128.668L173.346 127.684L172.678 126.864L171.843 126.536H171.175Z" fill="#9F86C0"/>
<path d="M209.084 125.716H211.422L212.758 126.864L213.092 128.34L212.758 129.16L212.424 129.324H208.917V128.996L211.088 128.668L210.921 127.848L210.253 127.028L209.418 126.7L208.416 126.864L207.915 127.52V128.34L208.75 128.996L209.251 130.144L210.42 130.8L212.257 130.964L212.758 130.8L212.925 131.456L212.09 132.44L211.756 132.604H209.084L207.581 131.62L206.913 130.636L206.746 130.144V128.34L207.581 126.7L208.583 125.88L209.084 125.716Z" fill="#9F86C0"/>
<path d="M150.3 125.716H152.471L153.473 126.372L153.974 127.028L154.141 127.52V128.996L153.64 129.324L150.133 129.488L150.467 130.144L151.803 130.8L153.306 130.964H154.141L153.974 131.784L153.306 132.44L152.805 132.604H150.3L149.131 131.948L148.129 130.636L147.962 130.144V128.504L148.797 126.864L149.632 126.044L150.3 125.716ZM149.966 126.536L148.964 127.356V128.34L149.465 128.832L149.799 128.996H151.803L152.471 128.668L152.137 127.52L151.135 126.7L149.966 126.536Z" fill="#9F86C0"/>
<path d="M196.225 125.716H198.396L198.897 126.044L199.064 126.864L199.732 126.7L200.233 125.88L200.4 125.716H202.237L202.404 126.536L201.569 128.012L201.235 128.176L200.567 127.684H199.398L199.064 127.848V132.44L198.897 132.604H196.559L196.225 132.276L196.392 131.456V126.7L196.225 125.716Z" fill="#9F86C0"/>
<path d="M122.077 125.716L124.582 125.88L125.083 126.7L125.751 126.372L126.419 125.716H128.089L128.256 126.208L127.755 127.684L127.421 128.012L126.586 127.848L126.419 127.684H125.25L124.916 128.012V132.604H122.244L122.077 132.276L122.244 131.128V126.864L122.077 125.716Z" fill="#9F86C0"/>
<path d="M146.125 123.748H146.626L146.793 125.388L147.294 125.716L147.127 126.208L146.793 126.372V131.456L146.96 132.604H145.29L144.455 131.784L144.121 130.308L143.954 126.208L143.453 126.044V125.716L144.956 124.732L146.125 123.748Z" fill="#9F86C0"/>
<path d="M176.519 125.716H178.523L179.191 126.7L180.026 127.028V127.356L179.191 127.848L179.024 129.16V130.636L179.191 132.604H176.352V125.88L176.519 125.716Z" fill="#9F86C0"/>
<path d="M204.742 125.716H205.744L205.911 132.44L205.744 132.604H203.239V126.372L204.742 125.716Z" fill="#9F86C0"/>
<path d="M158.65 122.764H161.656L162.324 123.092L162.825 124.24L162.658 124.896V124.568L161.99 124.24L161.656 123.912L160.821 124.404H159.485V126.7L159.819 128.012L161.489 131.292V132.276L161.322 132.44L159.318 132.604L158.817 132.44L158.65 122.764Z" fill="#9F86C0"/>
<path d="M105.711 99.804H105.878L106.045 101.608V107.84L105.878 108.004V110.3L109.719 110.136H118.904L119.405 109.808V108.988H119.906L120.574 110.464V110.792L120.24 110.956H106.212L104.208 110.792L104.876 109.644L105.377 107.676L105.544 105.38L105.711 99.804Z" fill="#9F86C0"/>
<path d="M188.71 87.34H191.382L192.217 88.16L192.05 89.308L191.215 89.964L189.712 90.62H188.376L186.873 89.964L186.706 88.816L187.875 87.504L188.71 87.34Z" fill="#0A060E"/>
<path d="M189.211 91.1121H191.048L192.384 92.2601L192.551 92.4241L192.384 93.5721L191.716 94.0641L191.215 94.2281H189.211L188.042 94.0641V93.7361L187.374 93.4081L187.04 92.9161L187.207 92.0961L187.875 91.4401L189.211 91.1121Z" fill="#070409"/>
<path d="M258.85 74.384H263.192L265.697 74.712L268.202 75.532L270.707 77.008L272.711 78.812L274.214 80.78L274.882 82.092L274.715 82.584L273.88 81.6V81.272H273.546L273.045 80.452L272.711 79.468H272.377L271.709 78.812V78.484H271.375V78.156L270.874 77.992L270.206 77.336L269.204 76.68L266.031 75.368L264.695 75.204L264.528 75.04H262.524L261.689 74.876L260.52 75.204L258.85 75.04H257.848L256.512 75.532L254.174 76.188H253.506L253.339 76.68L252.17 77.336L252.003 76.844L252.671 76.188L255.009 75.204L257.514 74.548L258.85 74.384Z" fill="#9F86C0"/>
<path d="M275.884 88.652H276.051L275.884 90.292L275.216 91.604L274.381 92.424L272.878 93.408L271.041 94.064L269.705 94.392L268.035 94.556H257.013L255.677 94.392L256.011 94.064L257.347 93.9H259.518L264.862 93.736L269.204 93.9L269.872 93.572L272.377 93.244V92.916L273.379 92.424H273.713V92.096L274.548 91.768V91.112L274.882 90.456H275.216L275.383 89.636H275.717L275.55 88.98L275.884 88.652Z" fill="#9F86C0"/>
<path d="M186.205 125.88L186.873 126.044L187.374 127.028L187.541 132.44L187.374 132.604H184.702L185.036 128.996L185.37 128.34V128.012L186.372 127.684L185.704 127.192H186.372L186.038 126.372L186.205 125.88Z" fill="#9F86C0"/>
<path d="M185.37 85.0439H187.04L187.875 85.6999L187.708 87.3399L186.539 88.1599L186.038 88.3239H184.201L183.199 87.9959L183.032 87.8319V86.8479L183.7 85.8639L185.37 85.0439Z" fill="#08050B"/>
<path d="M185.537 94.064H186.873L188.042 94.392L189.044 95.212L189.211 96.196L188.543 97.016L188.209 97.18H185.704L184.201 96.032V95.048L185.036 94.228L185.537 94.064Z" fill="#060409"/>
<path d="M160.821 99.968H162.324L163.326 100.624L163.493 100.952V102.1L162.491 102.92L161.656 103.248H160.32L159.485 102.756L158.984 102.1V100.952L159.819 100.296L160.821 99.968Z" fill="#030204"/>
<path d="M159.318 103.904H161.322L162.491 104.56L162.992 105.708L162.825 106.528L161.99 107.184H160.821L159.485 106.692L158.316 105.38L158.483 104.56L159.318 103.904Z" fill="#030204"/>
<path d="M276.719 99.312L278.055 99.476L279.057 100.132L279.224 101.28L278.222 102.1L277.22 102.428H275.884L274.381 101.444L274.548 100.46L275.717 99.64L276.719 99.312Z" fill="#0B060F"/>
<path d="M292.25 74.384H298.095L301.268 74.712L305.443 75.696L307.447 76.352L310.119 77.664L311.622 78.976L312.123 79.96V81.108L311.789 82.584L311.455 82.748L311.288 81.436L311.455 81.108L311.121 79.14H310.787V78.812L310.119 78.484L309.284 77.828V77.5L308.282 77.336L306.946 76.68L305.944 76.352H304.942L304.608 75.86L302.27 75.532L301.936 75.368L299.932 75.204L299.765 75.04L296.592 74.876L293.085 75.04L291.248 74.876L291.081 74.548L292.25 74.384Z" fill="#9F86C0"/>
<path d="M275.383 103.248H276.719L278.055 103.904L278.556 104.56V105.708L277.888 106.364L276.719 106.528L275.216 106.036L274.548 105.708L274.381 105.38V104.068L275.049 103.412L275.383 103.248Z" fill="#09050C"/>
<path d="M305.777 90.4561H307.28L308.616 91.4401L308.282 92.5881L307.781 93.0801L306.946 93.4081H305.443L304.441 92.9161L303.94 92.2601V91.4401L304.775 90.7841L305.777 90.4561Z" fill="#050306"/>
<path d="M305.61 86.52H306.779L307.781 87.176L307.948 87.996L307.113 89.144L306.278 89.636H304.775L303.773 89.144L303.272 88.488L303.606 87.832L304.441 86.848L305.61 86.52Z" fill="#070409"/>
<path d="M157.481 97.016H158.984L159.986 97.672V98.656L159.318 99.64L158.149 100.132H156.813L155.978 99.804L155.477 98.984L155.811 98.164L156.813 97.344L157.481 97.016Z" fill="#030204"/>
<path d="M43.587 104.56H45.257L46.593 105.216L47.094 105.872V106.856L46.259 107.676H44.756L43.754 107.184L42.752 106.036L42.919 105.216L43.587 104.56Z" fill="#030204"/>
<path d="M73.313 87.996L74.983 88.16L75.317 88.324L75.484 89.472L74.983 90.292L73.981 90.948L73.48 91.112H72.144L71.309 90.62V90.292H70.975L71.142 89.472L71.81 88.652L72.645 88.16L73.313 87.996Z" fill="#07040A"/>
<path d="M100.868 98H102.037L103.373 98.656L103.54 99.312L103.039 100.296L102.538 100.788L101.87 100.952H100.367L99.532 100.624L99.031 99.968V98.984L99.866 98.328L100.868 98Z" fill="#060409"/>
<path d="M99.532 102.264H101.202L102.037 102.592L102.872 103.412L103.039 104.396L102.705 105.052L102.204 105.216H100.2L99.198 104.56L98.53 103.576L98.864 102.756L99.532 102.264Z" fill="#050306"/>
<path d="M245.991 86.684L247.494 86.848L248.329 87.504L248.162 88.16L247.16 89.308L246.158 89.8H244.989L243.987 89.308L243.82 89.144V87.668L245.49 86.848L245.991 86.684Z" fill="#030204"/>
<path d="M45.424 100.624H46.426L47.595 101.444L47.762 102.592L46.76 103.412L45.758 103.74L44.422 103.576L43.42 102.92V101.772L44.255 101.116L45.424 100.624Z" fill="#030204"/>
<path d="M215.263 101.444H216.432L217.768 101.936L218.436 102.756L218.603 103.576L218.269 104.232L217.601 104.56H216.432L215.096 104.068L214.428 103.248L214.261 102.428L214.929 101.608L215.263 101.444Z" fill="#030204"/>
<path d="M131.262 125.716H133.433L134.268 126.208L134.936 126.864L135.27 127.684L135.103 128.996L134.435 129.324H131.429L130.594 129.16V128.996L133.099 128.832L132.765 127.52L132.097 126.864L130.761 126.7L130.26 126.864L129.926 126.536L130.761 125.88L131.262 125.716Z" fill="#9F86C0"/>
<path d="M135.771 58.804H137.107L137.942 59.296V83.076H137.775L137.608 81.108V60.936L137.274 60.28V59.788L136.439 59.46V59.132L134.101 59.788H133.099L133.266 59.46L135.771 58.804Z" fill="#9F86C0"/>
<path d="M305.777 96.8521L307.447 97.1801L308.783 97.6721V98.0001L309.618 98.1641V99.8041L309.284 99.3121L308.95 98.4921L307.948 98.0001H305.944L302.938 98.3281L300.433 98.4921H296.091L292.584 98.1641L292.417 97.8361L292.751 97.5081L294.421 97.8361L295.757 97.6721L296.592 97.8361H300.099L301.936 97.6721H303.773L304.274 97.5081L305.61 97.3441L305.777 96.8521Z" fill="#9F86C0"/>
<path d="M150.3 125.716H152.471L153.473 126.372L153.974 127.028L154.141 127.52V128.996L153.64 129.324H149.799V128.996L151.803 128.832L152.304 128.668L151.97 127.52L151.135 126.864L149.966 126.7L148.964 127.356H148.63L148.964 126.7L149.799 125.88L150.3 125.716Z" fill="#9F86C0"/>
<path d="M161.656 123.748L162.658 124.568V124.896H162.992L163.326 126.536H163.66V127.028L162.658 126.864L162.825 127.356L162.658 127.684L162.825 128.34L162.157 128.996L161.99 128.504L161.489 128.668L160.487 125.88L160.153 124.896L159.318 124.732L159.485 124.24H160.821L161.656 123.748Z" fill="#9F86C0"/>
<path d="M216.265 97.672H218.102L218.937 98.328V99.64L217.601 100.46L217.267 100.624H216.265L215.263 100.132L214.595 99.312L214.929 98.492L215.764 97.836L216.265 97.672Z" fill="#030204"/>
<path d="M72.4781 92.0959H74.4821L75.8181 92.9159L75.9851 93.7359L75.4841 94.5559L74.6491 94.8839H72.9791L71.9771 94.2279L71.6431 93.7359V92.9159L72.4781 92.0959Z" fill="#030204"/>
<path d="M194.722 88.16L195.223 88.324L194.388 88.98H194.054V89.308L193.386 89.636L192.551 91.112L192.718 91.932L193.052 92.26V93.408L191.716 94.556L190.547 94.884H189.545L189.712 96.36L188.877 97.18L188.042 97.508H186.372L186.205 98.328L185.871 98.164V97.18L188.209 97.016L189.044 96.196L188.877 95.212L187.875 94.392L188.042 93.736V94.064H191.215L192.217 93.572L192.384 92.424L191.048 91.276L190.38 90.948L191.549 90.456L193.553 88.816L194.722 88.16Z" fill="#9F86C0"/>
<path d="M245.657 90.7839H247.828L248.997 91.7679L248.83 92.5879L248.329 93.2439L247.828 93.4079H245.824L244.822 92.7519L244.488 91.9319L244.989 91.1119L245.657 90.7839Z" fill="#030204"/>
<path d="M298.429 82.092L299.598 82.912V83.24L300.6 83.568L300.934 83.896L302.771 84.06L303.773 84.552L304.274 85.208L305.109 85.7L307.948 86.192L309.117 85.372L309.284 84.716H309.785V84.388H310.119L310.286 83.732L310.954 83.568V84.224L309.952 85.7L308.783 86.684L308.115 86.848L307.781 87.34L306.779 86.684H305.61L304.608 86.848L304.441 86.192L303.606 86.028L303.272 84.88L303.105 84.716H301.268L300.767 84.88L300.6 84.224L299.097 83.24L298.262 82.584L298.429 82.092Z" fill="#9F86C0"/>
<path d="M130.594 91.4399L132.097 91.6039L133.266 92.5879L133.099 93.4079L132.264 94.0639L131.763 94.2279H130.26L129.091 93.7359L128.924 92.5879L129.759 91.6039L130.594 91.4399Z" fill="#030204"/>
<path d="M171.676 125.716H173.68L174.515 126.208L175.183 127.028L175.517 128.012L175.35 128.996L174.682 129.324H172.511L172.678 128.832L173.346 128.668L173.179 127.684L172.344 126.864L171.175 126.7L170.34 127.028V126.372L171.676 125.716Z" fill="#9F86C0"/>
<path d="M130.427 87.504H131.596L132.264 87.996L132.431 88.816L131.763 89.8L130.26 90.62L128.757 90.292L128.256 89.8L128.423 88.816L129.258 87.996L130.427 87.504Z" fill="#030204"/>
<path d="M273.379 96.524L274.882 96.688L275.55 97.344L275.383 98.328L274.548 99.148L273.713 99.476H272.377L271.542 98.82L271.375 98L272.21 97.016L273.379 96.524Z" fill="#0D0711"/>
<path d="M219.939 129.816H220.106L219.939 131.292L219.271 132.112L218.269 132.604H214.595L213.927 132.44L213.76 131.62L214.428 130.144L215.263 130.308L217.601 131.456L218.77 131.292L219.271 130.8L219.605 130.308H219.939V129.816Z" fill="#9F86C0"/>
<path d="M301.268 84.552H303.105L303.606 85.208L303.773 85.864L302.604 87.176L302.27 87.504H301.101L299.598 87.176L299.431 86.684L300.433 85.044L301.268 84.552Z" fill="#08050B"/>
<path d="M69.639 86.0281L71.142 86.1921L71.476 87.1761L70.808 88.1601L69.973 88.8161L68.303 89.1441L67.635 88.8161L67.468 88.4881V87.3401L67.969 86.3561L69.639 86.0281Z" fill="#08050B"/>
<path d="M40.08 106.692H41.249L42.251 107.184L42.919 108.004L43.086 109.152L42.418 109.808L40.748 109.644L39.746 108.988L39.245 108.004V107.184L40.08 106.692Z" fill="#030204"/>
<path d="M242.651 93.736L244.655 94.064L245.49 94.72L245.824 95.704L244.989 96.524L244.154 96.688H242.985L241.649 95.54L241.482 94.884L242.15 94.064L242.651 93.736Z" fill="#050307"/>
<path d="M138.443 109.152L138.777 109.316L139.445 110.792L138.944 110.956H126.92L126.252 110.628L127.421 110.3L133.266 110.136H137.441L138.276 109.808L138.443 109.152Z" fill="#9F86C0"/>
<path d="M155.143 69.464L155.477 69.628V76.188L155.644 86.684L155.477 90.62L155.644 93.572L155.31 96.524H155.143V69.464Z" fill="#9F86C0"/>
<path d="M199.565 74.384H205.243L207.581 74.712L208.082 75.204L207.414 75.368L206.913 75.204V74.876L204.074 75.04H203.573L202.404 74.712V75.04H200.567L200.066 75.368L199.398 75.204V74.876L198.563 75.204L198.229 75.04L197.227 75.204L196.726 75.04L196.559 75.532H195.39L193.887 75.696L193.553 76.188L192.551 76.516L191.716 76.844H190.714V76.516L193.052 75.532L196.559 74.712L199.565 74.384Z" fill="#9F86C0"/>
<path d="M241.983 84.7159H242.985L243.82 85.3719L243.653 86.8479L242.317 87.8319L241.816 87.9959H240.647L240.146 87.5039L240.313 86.3559L240.981 85.3719L241.482 84.8799L241.983 84.7159Z" fill="#0D0812"/>
<path d="M145.791 72.744L146.459 73.072L146.292 73.892L144.789 77.008L143.453 78.976L142.785 79.468L142.117 79.304L141.783 78.976V74.22L142.117 74.712V76.352L142.451 77.336L142.785 78.156H143.119L143.62 77.008V76.68H143.954V75.204L144.956 74.056L145.958 73.728L145.791 72.744Z" fill="#9F86C0"/>
<path d="M126.085 85.7H127.755L128.089 86.028L127.922 87.176L127.254 88.16L126.085 88.652H124.415V86.356L126.085 85.7Z" fill="#030204"/>
<path d="M220.44 108.496H220.774L221.275 109.808L221.776 110.464V110.792L217.935 110.956H208.75V110.464L210.42 110.3H215.263L218.937 110.136H220.106V109.644V109.316H220.44V108.496Z" fill="#9F86C0"/>
<path d="M271.542 105.544L272.878 105.708L274.214 106.036L274.548 106.692V107.84L274.047 108.332L272.878 108.496L271.709 108.168L271.041 107.348L270.707 106.692L270.874 106.036L271.542 105.544Z" fill="#08050B"/>
<path d="M41.9169 97.8361H43.4199L44.2549 98.4921L44.0879 99.4761L43.2529 100.296L42.4179 100.624L40.9149 100.46L40.2469 99.9681L40.4139 98.8201L41.4159 98.0001L41.9169 97.8361Z" fill="#030204"/>
<path d="M126.92 94.72H128.59L129.926 95.54L130.093 96.524L129.258 97.344H127.588L126.586 96.852L126.085 96.032L126.252 95.048L126.92 94.72Z" fill="#030204"/>
<path d="M225.283 83.7321H225.45V84.5521H225.784V95.7041L225.617 108.66L225.283 108.496V83.7321Z" fill="#9F86C0"/>
<path d="M301.936 93.572H303.272L304.274 94.064L304.775 94.884V95.704L304.107 96.196L302.771 96.36L301.602 95.868L300.767 94.556L301.435 93.736L301.936 93.572Z" fill="#030204"/>
<path d="M238.643 84.552H238.81L238.977 88.16H237.307L236.472 88.324V89.8L237.307 91.44L237.474 91.932V93.244L237.307 93.9V95.212L238.81 95.868L238.977 97.016L238.643 97.508L237.808 96.196L236.973 95.704L236.806 95.376V91.276H236.472L235.804 89.964V88.98L236.305 87.996L237.641 87.176L237.808 86.356L238.142 86.028L238.309 85.208H238.643V84.552Z" fill="#9F86C0"/>
<path d="M164.662 124.24H165.664L165.998 124.732L165.664 125.224V124.568L164.829 125.388L163.994 128.012L163.159 131.456H162.658L161.99 129.98L161.656 129.16V128.504H161.99L162.157 128.832L162.658 128.176L162.491 127.52L162.658 126.864L163.159 126.7L163.66 127.028L163.827 125.88L164.328 124.404L164.662 124.24Z" fill="#9F86C0"/>
<path d="M86.673 74.548L88.51 74.876L91.516 75.86L93.52 76.844L95.691 78.484L96.526 79.14L98.029 80.944L99.031 82.584L100.033 84.716V85.864L99.699 85.208L98.864 83.404V83.076H98.53L98.029 81.928L97.862 81.436H97.528V81.108H97.194L96.192 79.796L94.856 78.648L93.854 77.992V77.5L93.186 77.336L91.85 76.68L90.514 76.188V75.86L89.512 75.696L87.842 75.204L87.508 75.368L87.007 75.04V74.712L86.673 74.548Z" fill="#9F86C0"/>
<path d="M95.8579 104.56H97.1939L98.1959 105.052L98.6969 105.544L98.8639 106.692L98.1959 107.348H96.8599L95.8579 106.856L95.0229 105.708L95.1899 104.888L95.8579 104.56Z" fill="#030204"/>
<path d="M213.593 94.72L214.762 94.884L215.43 95.376L215.263 96.524L214.595 97.18L213.426 97.508L212.09 97.344L211.589 96.688L211.756 95.704L212.591 95.048L213.593 94.72Z" fill="#030204"/>
<path d="M239.311 109.316L239.812 109.808L240.313 110.464V110.792L239.645 110.956H228.122L227.287 110.628V110.464L228.456 110.3H236.639L237.808 110.464L238.977 110.136V109.48L239.311 109.316Z" fill="#9F86C0"/>
<path d="M38.577 108.66H38.911V108.988L39.913 109.316L40.581 109.808L42.418 109.972V109.644L43.253 109.316L44.088 109.48L44.589 109.644V110.136L45.257 110.3L44.255 110.628L43.42 110.792H49.599V110.956H39.245V110.792H40.748L40.581 110.464L39.913 110.136L39.579 110.464L38.41 110.628L38.744 109.316L38.577 108.66Z" fill="#9F86C0"/>
<path d="M69.472 95.212H70.641L71.81 95.54L72.478 96.196V97.18L71.977 97.672L71.476 97.836H70.307L69.305 97.344L68.637 96.524L68.804 95.704L69.472 95.212Z" fill="#030204"/>
<path d="M211.756 103.74L213.259 103.904L214.261 104.724L214.428 105.052V106.036L213.426 106.692L212.09 106.364L210.921 105.38L210.754 104.396L211.255 103.904L211.756 103.74Z" fill="#030204"/>
<path d="M97.528 95.54H98.864L99.532 96.032V97.344L98.53 98.164L97.194 98.328L96.359 98L95.858 97.18L96.359 96.196L97.528 95.54Z" fill="#030204"/>
<path d="M283.566 97.672L284.568 97.836L287.574 99.312V99.64L286.071 99.312L285.236 98.82L284.067 98.164L283.733 98.656H283.065L282.731 99.312L281.562 100.952L280.56 103.084L280.059 105.052L279.892 106.364L279.725 107.184L279.892 108.004L280.059 108.332H279.558L278.89 107.184L279.892 103.248L281.395 100.132L282.564 98.492L283.566 97.672Z" fill="#9F86C0"/>
<path d="M209.084 75.368L210.42 75.532L213.593 77.172L215.263 78.484L216.599 79.632L218.269 81.928L219.438 84.224L219.772 85.372V86.028L219.271 85.864L218.77 84.224L217.601 82.092L217.267 81.436H216.933V80.944H216.599L215.764 80.124V79.468L215.096 79.14L213.927 78.156L213.426 77.828V77.5L212.758 77.336L209.084 75.532V75.368Z" fill="#9F86C0"/>
<path d="M158.65 122.764H161.656L162.324 123.092L162.825 124.24L162.658 124.896V124.568L161.99 124.24L161.656 123.912L160.821 124.404H159.485L159.151 126.044L158.984 131.948H158.817L158.65 122.764Z" fill="#9F86C0"/>
<path d="M181.863 73.728H182.03V78.976L181.529 79.468L180.694 79.304L179.525 77.992L179.358 77.172L180.36 76.68L180.694 77.172L181.028 76.516L181.195 75.696L181.529 74.384L181.863 73.728Z" fill="#9F86C0"/>
<path d="M110.554 56.672H113.727L115.731 57.164L117.234 57.984L118.403 59.132L119.238 60.444L119.739 61.756V62.248H119.405L118.904 61.428L118.403 60.28L117.401 59.132L117.067 58.968L116.9 58.476L114.729 57.492L113.226 57.328H112.057L111.389 57.164L109.719 57.328L109.385 57.82H108.383L108.216 58.312L107.715 58.148L107.882 57.656L109.886 56.836L110.554 56.672Z" fill="#9F86C0"/>
<path d="M165.998 125.224L166.833 125.552L167.501 126.044L167.835 127.192V128.012L167.334 128.176L167 130.144L166.833 131.456H166.332L165.998 130.308V128.176L165.831 125.388L165.998 125.224Z" fill="#9F86C0"/>
<path d="M215.43 125.552L218.102 125.716L219.605 126.208L219.939 126.536V127.52L219.271 128.176H218.436L216.766 126.7L215.931 126.208H214.762L214.595 127.028L214.428 126.7H214.094L214.428 126.044L215.43 125.552Z" fill="#9F86C0"/>
<path d="M82.832 107.84L83.5 108.004L83.166 108.66L80.828 110.3L79.325 110.956L76.653 111.612H72.979L72.645 111.284V110.792H73.981V111.12L75.985 110.956L76.319 111.12L76.987 110.792L78.49 110.464L79.826 110.3L79.993 109.808L80.828 109.48L80.995 109.152L81.162 109.316L81.83 108.66L82.498 108.496V108.004L82.832 107.84Z" fill="#9F86C0"/>
<path d="M101.035 108.332L101.369 108.496L102.037 110.3L102.204 110.792H92.8521V110.628L93.6871 110.464H95.6911L96.192 110.3L97.695 110.136H100.367L100.2 108.824L100.701 108.496L100.868 108.66L101.035 108.332Z" fill="#9F86C0"/>
<path d="M81.496 87.668H82.665V88.488L80.828 89.8L79.492 91.604L78.657 93.408L78.156 95.212H77.822V93.9L78.323 92.588L78.49 92.26L78.156 92.096L78.824 91.44V91.112H79.158V90.292H79.492L79.659 89.636H80.16L80.327 88.98L80.828 88.816L80.661 88.16L81.496 87.668Z" fill="#9F86C0"/>
<path d="M52.438 62.412H52.939L53.106 63.068H53.44V63.396H53.774L54.609 65.036L55.11 65.692L55.945 67.168L55.778 67.66L55.611 67.824H56.279L56.613 70.12H56.947V71.104L56.446 70.612L54.275 66.02L52.939 63.724L52.271 62.904L52.438 62.412Z" fill="#9F86C0"/>
<path d="M203.907 122.272L205.41 122.436L205.911 122.928V124.24L205.577 124.732L204.241 124.896L203.406 124.568L203.072 123.748L203.239 122.764L203.907 122.272Z" fill="#9F86C0"/>
<path d="M119.071 125.716L119.572 125.88L119.405 127.356L120.24 127.684V128.504L119.238 129.324L118.236 129.16L117.568 128.34V127.356L118.737 126.044L119.071 125.716Z" fill="#9F86C0"/>
<path d="M251.836 79.14H252.838V79.468H254.007L253.339 79.96L251.502 80.616L250.166 81.436L249.331 82.42L248.997 83.076L248.162 83.24L247.995 82.42L248.663 81.108H249.331L249.498 80.616L249.999 80.78V80.452L250.667 80.124V79.796L251.836 79.14Z" fill="#9F86C0"/>
<path d="M284.902 76.3521H285.57V76.8441L284.067 77.0081V77.3361L282.898 77.6641L282.23 78.4841L281.061 79.7961L280.226 81.108L279.892 81.272L279.725 82.0921H279.391L279.224 84.552L279.391 85.044L279.057 86.192V86.684H278.723V83.24L279.391 81.108L280.56 79.4681L281.896 77.9921L284.067 76.5161L284.902 76.3521Z" fill="#9F86C0"/>
<path d="M181.863 125.88L182.197 126.044L182.531 127.192L182.698 127.684L182.364 128.668H181.696L181.529 129.488L180.694 129.652L180.527 127.52L180.026 127.356L180.694 127.028L180.861 126.536L181.362 126.044L181.863 125.88Z" fill="#9F86C0"/>
<path d="M22.3781 74.712L22.7121 75.204L22.8791 76.844L23.7141 77.008L24.0481 77.664H24.5491L24.3821 78.32L23.5471 79.304L22.7121 79.468L22.2111 78.976V74.876L22.3781 74.712Z" fill="#9F86C0"/>
<path d="M204.074 84.7159L204.742 84.8799L203.072 85.8639L201.736 86.0279L200.734 86.3559L200.4 86.1919L200.233 86.6839L199.231 86.8479L198.897 86.6839L198.73 87.1759L196.225 87.9959H195.557V87.6679L198.563 86.3559L201.569 85.3719L204.074 84.7159Z" fill="#9F86C0"/>
<path d="M275.884 88.652H276.051L275.884 90.292L275.216 91.604L274.381 92.424L272.878 93.408L271.041 94.064L269.705 94.392H268.536L269.204 93.9L269.872 93.572L272.377 93.244V92.916L273.379 92.424H273.713V92.096L274.548 91.768V91.112L274.882 90.456H275.216L275.383 89.636H275.717L275.55 88.98L275.884 88.652Z" fill="#9F86C0"/>
<path d="M200.567 88.324H200.901V88.652H201.402L201.569 88.324V88.98L200.4 89.8L199.064 91.604L197.895 94.228L197.561 95.868H197.06L197.227 95.048L197.728 93.08L197.895 91.768L198.229 91.604L198.396 91.112H198.73L199.064 90.128H199.398L199.565 89.636L200.066 89.472V88.816L200.233 88.488L200.567 88.652V88.324Z" fill="#9F86C0"/>
<path d="M257.848 110.464L259.518 110.956L260.353 111.12L261.355 110.956L264.361 111.12L265.029 110.956L265.697 111.12L265.363 111.448L264.361 111.612H259.351L257.18 111.12V110.628L257.848 110.464Z" fill="#9F86C0"/>
<path d="M61.957 75.204L62.458 75.368V78.976L61.79 79.468L60.955 79.304L59.786 77.664L59.953 77.172L60.287 77.992L61.122 77.664L61.623 77.828L61.957 77.172L61.79 76.516L61.957 76.024V75.204Z" fill="#9F86C0"/>
<path d="M105.711 84.224H105.878L106.045 85.7L106.212 92.424L106.045 93.408V97.016L105.878 98.656H105.711V84.224Z" fill="#9F86C0"/>
<path d="M259.017 91.932H260.854V92.424L259.184 92.752L257.848 92.916L257.514 93.08L255.343 92.916L254.007 92.588L253.673 92.752V92.26L258.349 92.096L259.017 91.932Z" fill="#9F86C0"/>
<path d="M288.409 100.132L289.244 100.296L292.083 101.936L294.588 103.084L295.757 103.576L295.256 103.74L294.087 103.576V103.248H293.252L291.582 102.592L290.58 101.936V101.608L289.411 101.28L288.576 100.788L288.409 100.132Z" fill="#9F86C0"/>
<path d="M311.288 96.36H311.622L311.956 97.836V101.28L311.622 102.756L311.121 103.084L310.954 102.756L311.121 101.444L310.954 100.788L311.121 99.64H311.622L311.455 99.312H311.789V98.984H311.455L311.288 97.508V96.36Z" fill="#9F86C0"/>
<path d="M124.582 63.068L125.584 63.232L124.916 63.56L123.58 64.052L123.079 65.036V65.692H123.58L123.747 66.512L123.079 66.184L121.409 65.2V64.708L124.582 63.068Z" fill="#9F86C0"/>
<path d="M292.417 110.792L294.421 110.956L295.089 110.792L295.256 110.956H297.26L297.594 110.792L298.429 111.12V111.448L298.095 111.612H293.085L292.25 111.284L292.417 110.792Z" fill="#9F86C0"/>
<path d="M309.284 77.3361L310.119 77.6641L311.622 78.9761L312.123 79.9601V81.1081L311.789 82.5841L311.455 82.7481L311.288 81.4361L311.455 81.1081L311.121 79.1401H310.787V78.8121L310.119 78.4841L309.284 77.8281V77.3361Z" fill="#9F86C0"/>
<path d="M198.229 110.464H199.064V110.792L196.893 111.448L195.891 111.612H192.885L192.217 111.448L192.384 110.956L193.386 110.792L194.889 110.956H196.392L198.062 110.628L198.229 110.464Z" fill="#9F86C0"/>
<path d="M185.871 125.88H186.205L186.372 126.536V127.192L186.539 127.684L186.205 128.012H185.37L185.537 128.504L185.37 128.996H185.036L185.203 129.488L185.036 131.456H184.869L184.702 127.52L185.036 126.7V126.372L185.871 126.208V125.88Z" fill="#9F86C0"/>
<path d="M86.506 102.756L86.673 103.412L85.838 104.724H85.337V105.38L84.335 105.544L84.168 105.872L83.667 105.544V105.872H82.832L81.997 106.036L80.995 105.872V105.544H80.494V105.216H80.16V104.888L80.995 105.052L81.496 105.216H83.834L85.504 104.396L86.506 102.756Z" fill="#9F86C0"/>
<path d="M305.777 96.8521L307.447 97.1801L308.783 97.6721V98.0001L309.618 98.1641V99.8041L309.284 99.3121L308.95 98.4921L307.948 98.0001H304.942L305.276 97.3441H305.61L305.777 96.8521Z" fill="#9F86C0"/>
<path d="M113.226 75.532L113.56 75.696L113.226 76.188H112.224V76.68L110.554 77.336L108.216 78.484L107.882 78.32V77.828L111.89 76.024L113.226 75.532Z" fill="#9F86C0"/>
<path d="M180.694 59.624H182.197V66.348L181.863 66.512L181.696 61.92L181.529 60.116L180.694 59.788V59.624Z" fill="#9F86C0"/>
<path d="M116.9 74.384H118.236L119.071 74.712L119.238 75.04V78.976H119.071L118.904 76.516L118.403 75.696L118.069 75.532L117.735 74.876H115.731L115.898 74.548L116.9 74.384Z" fill="#9F86C0"/>
<path d="M150.133 64.708L150.3 65.2L148.296 69.3L148.129 69.792L147.628 69.956V69.3L147.795 68.152L148.463 67.988L148.296 67.004L149.131 66.676L149.298 66.02L149.966 64.872L150.133 64.708Z" fill="#9F86C0"/>
<path d="M105.711 99.804H105.878L106.045 101.608V107.84L105.377 108.168L105.544 105.38L105.711 99.804Z" fill="#9F86C0"/>
<path d="M135.771 58.804H137.107L137.942 59.296V61.1L137.608 60.936L137.274 60.28V59.788L136.439 59.46V59.132L134.101 59.788H133.099L133.266 59.46L135.771 58.804Z" fill="#9F86C0"/>
<path d="M289.411 84.7159L291.081 84.8799L295.757 85.8639L295.423 86.5199L294.254 86.1919L292.918 86.0279L291.749 85.6999L290.246 85.3719L289.578 85.0439L289.411 84.7159Z" fill="#9F86C0"/>
<path d="M35.237 107.512L36.072 107.676L36.573 108.824L37.074 109.316L36.406 109.48L36.239 109.972H35.404V108.988H35.07L34.903 109.316L35.07 108.004L35.237 107.512Z" fill="#9F86C0"/>
<path d="M292.25 74.384H296.592L297.427 74.548V74.712L295.59 74.876L293.085 75.04L291.248 74.876L291.081 74.548L292.25 74.384Z" fill="#9F86C0"/>
<path d="M110.554 56.672H113.727V56.836L112.558 57.164H111.89L109.719 57.328L109.385 57.82H108.383L108.216 58.312L107.715 58.148L107.882 57.656L109.886 56.836L110.554 56.672Z" fill="#9F86C0"/>
<path d="M119.572 65.036H119.739V66.348L118.57 68.644L117.401 69.956L116.733 69.792L117.234 69.3H117.735L117.902 68.152L118.737 67.332L118.904 66.184L119.405 65.692L119.572 65.036Z" fill="#9F86C0"/>
<path d="M235.47 59.132L235.971 59.296L234.969 59.788L233.633 60.116L231.462 60.936V61.1L230.627 61.264L229.959 61.592L228.79 61.756L228.957 61.428L233.633 59.624L235.47 59.132Z" fill="#9F86C0"/>
<path d="M288.743 74.876H289.578L289.745 75.368L289.077 75.696H288.075H287.574H287.24V76.024L287.574 76.188H287.24L287.073 76.516L286.739 76.188L285.904 76.352L285.403 76.024L286.739 75.368L288.743 74.876Z" fill="#9F86C0"/>
<path d="M44.422 107.84L45.424 108.168H46.593L46.426 108.988L45.424 109.316L43.921 108.988L43.587 108.332H44.422H44.589L44.422 107.84Z" fill="#9F86C0"/>
<path d="M61.957 59.46L62.625 59.624V62.576L62.458 69.3H62.291V60.28L61.957 60.116L62.124 59.788L61.79 59.624L61.957 59.46Z" fill="#9F86C0"/>
<path d="M203.239 107.184L204.074 107.348L203.239 108.168L200.901 109.972H200.567L200.901 109.152L202.07 108.168L202.404 107.676L203.072 107.512L203.239 107.184Z" fill="#9F86C0"/>
<path d="M85.838 84.224H86.339V84.552L85.504 85.044L85.337 85.372L83.333 85.536L82.999 86.028L81.496 85.7L81.997 85.372L85.17 84.552L85.838 84.224Z" fill="#9F86C0"/>
<path d="M104.709 79.304L105.043 79.468L104.876 80.124V81.108L104.709 81.436L103.874 81.108L103.039 80.616L103.206 80.124L104.709 79.304Z" fill="#9F86C0"/>
<path d="M216.599 127.848L218.436 128.176L219.104 128.832L217.768 129.488H217.434L217.267 128.996L216.766 128.832L216.933 128.176H216.599V127.848Z" fill="#9F86C0"/>
<path d="M72.645 110.792H73.981V111.12L75.985 110.956L76.319 111.448L75.15 111.612H72.979L72.645 111.284V110.792Z" fill="#9F86C0"/>
<path d="M199.732 104.888L200.567 105.052L201.068 105.216H204.074L203.907 105.708H202.905L202.738 106.036H201.402L199.899 105.216L199.732 104.888Z" fill="#9F86C0"/>
<path d="M293.419 78.3201H293.753L294.421 78.9761L294.755 79.1401V79.4681L295.924 79.7961L296.759 80.7801L297.26 81.1081V81.4361L297.928 81.7641L298.095 82.0921L297.427 81.7641L294.588 79.6321L293.419 78.8121V78.3201Z" fill="#9F86C0"/>
<path d="M180.527 125.716H182.197L182.03 126.044H181.362L181.195 126.536L180.861 126.864L180.527 127.356H180.026V127.028H179.525V126.7L180.36 125.88L180.527 125.716Z" fill="#9F86C0"/>
<path d="M257.848 110.464L259.518 110.956L261.021 111.448V111.612H259.351L257.18 111.12V110.628L257.848 110.464Z" fill="#9F86C0"/>
<path d="M55.444 67.824H56.279L56.613 70.12H56.947V71.104L56.446 70.612L55.444 68.48V67.824Z" fill="#9F86C0"/>
<path d="M188.376 109.152L188.71 109.316V109.644L189.211 109.48L189.879 109.972V110.3L190.547 110.464L191.215 110.792L191.716 110.628L192.05 111.284L190.881 111.12L188.543 109.972L188.042 109.316L188.376 109.152Z" fill="#9F86C0"/>
<path d="M193.553 75.368L194.221 75.532L193.553 76.188L192.551 76.516L191.716 76.844H190.714V76.516L193.052 75.532L193.553 75.368Z" fill="#9F86C0"/>
<path d="M225.283 74.22L225.617 74.384L225.784 77.828V78.648H225.617L225.45 79.796H225.283V74.22Z" fill="#9F86C0"/>
<path d="M78.49 110.464H79.325V110.956L76.653 111.612H75.15V111.448L76.319 111.284L76.987 110.792L78.49 110.464Z" fill="#9F86C0"/>
<path d="M283.566 97.672L284.568 97.836L287.574 99.312V99.64L286.071 99.312L285.236 98.82L284.067 98.164V97.836L283.566 97.672Z" fill="#9F86C0"/>
<path d="M259.852 100.132L260.854 100.46L263.86 101.608L263.693 101.936L262.524 101.772L259.852 100.624V100.132Z" fill="#9F86C0"/>
<path d="M137.775 87.832H137.942L138.109 92.26L137.775 92.916L137.608 92.096L137.441 90.948L137.608 89.636V88.16L137.775 87.832Z" fill="#9F86C0"/>
<path d="M239.311 109.316L239.812 109.808L240.313 110.464V110.792H237.808L237.975 110.464L238.977 110.136V109.48L239.311 109.316Z" fill="#9F86C0"/>
<path d="M253.005 109.152L254.007 109.316L254.842 109.808L255.844 110.136L256.679 110.464V110.628H255.51L253.172 109.644L253.005 109.152Z" fill="#9F86C0"/>
<path d="M126.92 89.308L127.421 89.472L127.922 90.784L127.254 91.112L126.586 90.456L126.252 89.636L126.92 89.308Z" fill="#9F86C0"/>
<path d="M218.77 126.864L219.271 127.028L219.438 127.848L219.271 128.176H218.436L217.601 127.356V127.028L218.77 126.864Z" fill="#9F86C0"/>
<path d="M288.576 110.464L289.912 110.628L291.582 110.956L291.749 111.284H289.745L288.576 111.12V110.792L288.242 110.628L288.576 110.464Z" fill="#9F86C0"/>
<path d="M254.007 95.212L254.508 95.868L255.677 97.18L256.679 98L256.512 98.328L255.51 98L255.176 97.18L254.675 97.016L254.007 96.032V95.212Z" fill="#9F86C0"/>
<path d="M80.9949 85.7H81.8299V86.192L80.9949 86.52L79.4919 86.848V86.356L80.9949 85.7Z" fill="#9F86C0"/>
<path d="M305.777 75.86L307.447 76.352L309.284 77.172V77.5L308.282 77.336L306.946 76.68L305.944 76.352L305.777 75.86Z" fill="#9F86C0"/>
<path d="M168.67 110.136H169.672L170.173 110.792L170.006 110.956H167.835L168.336 110.3L168.67 110.464V110.136Z" fill="#9F86C0"/>
<path d="M196.559 74.712L197.06 74.876H196.726L196.559 75.532H195.39L194.555 75.696L194.221 75.532V75.204L196.559 74.712Z" fill="#9F86C0"/>
<path d="M187.875 78.812H188.543L188.209 79.632H187.708L187.875 80.452L187.541 81.272H187.207V80.124L187.875 78.812Z" fill="#9F86C0"/>
<path d="M190.213 76.844L190.881 77.172H190.547V77.5H189.712L189.545 78.484H188.543L189.044 77.664L190.213 76.844Z" fill="#9F86C0"/>
<path d="M280.56 91.276L280.894 91.932H281.228L282.063 92.916L282.898 93.736L283.399 93.9L283.566 94.392L282.898 94.228L281.395 92.916L280.56 91.768V91.276Z" fill="#9F86C0"/>
<path d="M135.771 58.804H136.606L136.439 59.132L134.101 59.788H133.099L133.266 59.46L135.771 58.804Z" fill="#9F86C0"/>
<path d="M264.027 90.62L264.528 90.784L263.359 91.604H262.858V91.932H261.689V91.604L264.027 90.62Z" fill="#9F86C0"/>
<path d="M278.89 83.7321L279.224 83.8961L279.391 85.0441L279.057 86.1921V86.6841H278.723V83.8961L278.89 83.7321Z" fill="#9F86C0"/>
<path d="M107.047 78.156H107.548L107.381 78.648L106.88 78.976H106.379L105.878 79.632H105.377L105.21 79.14L107.047 78.156Z" fill="#9F86C0"/>
<path d="M223.279 64.052H223.947V64.38H223.613V64.708L222.778 65.364L222.611 65.036L221.943 65.2L222.277 64.544L223.279 64.052Z" fill="#9F86C0"/>
<path d="M286.739 75.368L287.407 75.532L287.24 76.024L287.574 76.188H287.24L287.073 76.516L286.739 76.188L285.904 76.352L285.403 76.024L286.739 75.368Z" fill="#9F86C0"/>
<path d="M105.21 61.1L105.711 61.264L105.377 62.904L105.043 63.56L105.377 63.724L105.21 64.052H104.876V62.412L105.21 61.1Z" fill="#9F86C0"/>
<path d="M185.37 100.624H185.537L185.704 101.608L185.37 103.576L185.036 102.92V101.28L185.37 100.624Z" fill="#9F86C0"/>
<path d="M284.234 79.632H284.568V81.108L284.902 82.256H284.568L284.401 81.6H284.067L283.9 80.452L284.234 79.632Z" fill="#9F86C0"/>
<path d="M296.592 74.384L300.099 74.548L299.932 74.876H297.427V74.548H296.592V74.384Z" fill="#9F86C0"/>
<path d="M119.572 65.036H119.739V66.348L119.238 67.496L118.904 67.332V66.184L119.405 65.692L119.572 65.036Z" fill="#9F86C0"/>
<path d="M310.954 103.412L311.121 104.068L310.119 105.708L309.785 105.872L309.952 104.724H310.286L310.453 104.068L310.954 103.412Z" fill="#9F86C0"/>
<path d="M292.584 97.5081L294.254 97.8361L294.922 98.3281H293.586L292.417 98.0001L292.584 97.5081Z" fill="#9F86C0"/>
<path d="M187.04 81.6L187.708 81.928L187.541 83.076V84.552L187.207 84.716L187.04 81.6Z" fill="#9F86C0"/>
<path d="M284.902 76.3521H285.57V76.8441L284.067 77.0081V77.3361L283.065 77.5001L283.232 77.0081L284.067 76.5161L284.902 76.3521Z" fill="#9F86C0"/>
<path d="M107.214 58.1479H107.548V58.4759H107.214L107.381 59.1319L106.88 59.2959L106.045 60.2799L105.544 60.7719L105.878 59.7879L107.214 58.1479Z" fill="#9F86C0"/>
<path d="M109.385 57H109.719L109.385 57.82H108.383L108.216 58.312L107.715 58.148L107.882 57.656L109.385 57Z" fill="#9F86C0"/>
<path d="M130.594 60.444H130.928L130.761 61.1H129.592V61.428L128.59 61.92L128.423 61.592L128.924 61.1L130.594 60.444Z" fill="#9F86C0"/>
<path d="M185.871 97.1799H188.042V97.5079H186.372L186.205 98.3279L185.871 98.1639V97.1799Z" fill="#9F86C0"/>
<path d="M198.229 110.464H199.064V110.792L196.893 111.448H196.392L196.559 110.956L198.062 110.628L198.229 110.464Z" fill="#9F86C0"/>
<path d="M48.931 108.988L49.265 109.48V109.808L48.764 110.136L48.096 109.972L47.762 109.808V109.48H48.263L48.43 109.152L48.931 108.988Z" fill="#9F86C0"/>
<path d="M141.783 59.46L143.119 59.624V59.788L142.284 59.952L142.117 61.592H141.783V59.46Z" fill="#9F86C0"/>
<path d="M299.932 74.712H301.268L302.103 74.876L301.936 75.204H299.932V74.712Z" fill="#9F86C0"/>
<path d="M230.627 60.772L231.462 60.936V61.1L230.627 61.264L229.959 61.592L228.79 61.756L228.957 61.428L230.627 60.772Z" fill="#9F86C0"/>
<path d="M286.739 83.7321L288.409 84.2241L289.244 84.5521L288.576 84.8801L287.574 84.5521V84.2241L286.739 84.0601V83.7321Z" fill="#9F86C0"/>
<path d="M177.02 130.144L177.688 130.308L177.521 131.128L177.855 131.292L177.688 131.62H176.853L177.02 130.144Z" fill="#9F86C0"/>
<path d="M145.791 125.88L146.626 126.044L146.793 126.372L145.624 126.536L145.457 127.192L144.956 127.028L145.29 126.864L145.457 126.044L145.791 125.88Z" fill="#9F86C0"/>
<path d="M206.913 98H207.08L207.414 99.476V100.296L206.746 100.788L206.913 98Z" fill="#9F86C0"/>
<path d="M100.033 86.356L100.534 86.52L100.701 87.34V88.816L100.367 88.488L100.033 86.356Z" fill="#9F86C0"/>
<path d="M84.669 106.364L85.337 106.856L84.836 107.348L84.001 107.84L83.5 107.676L83.834 107.184L84.669 106.856V106.364Z" fill="#9F86C0"/>
<path d="M204.909 77.3361L205.911 77.8281L206.245 78.8121H205.744L204.909 77.8281V77.3361Z" fill="#9F86C0"/>
<path d="M149.799 125.88L150.133 126.044L149.465 127.028L148.797 127.356V126.864L149.632 126.044L149.799 125.88Z" fill="#9F86C0"/>
<path d="M74.9829 110.956H75.9849L76.3189 111.448L74.4819 111.612L74.6489 111.12L74.9829 110.956Z" fill="#9F86C0"/>
<path d="M168.67 107.184L169.004 107.84L169.171 109.152L168.503 108.66L168.336 107.84H168.67L168.503 107.348L168.67 107.184Z" fill="#9F86C0"/>
<path d="M82.498 85.208H83.333L82.999 86.028L81.496 85.7L81.997 85.372L82.498 85.208Z" fill="#9F86C0"/>
<path d="M69.1379 109.808L70.3069 110.136L71.4759 110.792L70.8079 110.956L69.3049 110.136L69.1379 109.808Z" fill="#9F86C0"/>
<path d="M146.459 123.748H146.626L146.793 125.388L147.294 125.716L147.127 126.208H146.793L146.292 125.552L146.459 123.748Z" fill="#9F86C0"/>
<path d="M308.282 106.528H308.616V107.348L307.948 108.004H307.614L307.781 107.348L308.282 106.528Z" fill="#9F86C0"/>
<path d="M97.027 100.132L97.862 100.296L98.029 100.788L97.695 101.28H97.361L97.027 100.132Z" fill="#9F86C0"/>
<path d="M132.431 128.832L133.099 128.996L132.765 129.324H131.429L130.594 129.16V128.996L132.431 128.832Z" fill="#9F86C0"/>
<path d="M278.89 87.34H279.224L279.725 89.472L279.224 89.308L278.89 88.16V87.34Z" fill="#9F86C0"/>
</svg>
