<svg width="56" height="58" viewBox="0 0 56 58" fill="none" xmlns="http://www.w3.org/2000/svg">
<path d="M54.518 48.7533L42.181 35.9761C44.329 32.3738 45.6276 28.1717 45.6276 23.6278C45.6276 10.578 35.4141 0 22.8138 0C10.2136 0 0 10.578 0 23.6278C0 36.6777 10.2136 47.2557 22.8138 47.2557C27.2011 47.2557 31.2584 45.9107 34.7332 43.6897L47.0737 56.4669C48.0668 57.4615 49.3976 58.012 50.779 57.9998C52.1604 57.9876 53.4819 57.4137 54.4585 56.4017C55.4352 55.3898 55.9887 54.0209 55.9998 52.5901C56.011 51.1594 55.4788 49.7815 54.518 48.7533ZM22.8138 39.9856C14.0919 39.9856 7.01964 32.661 7.01964 23.6278C7.01964 14.5947 14.0919 7.27011 22.8138 7.27011C31.5357 7.27011 38.608 14.5947 38.608 23.6278C38.608 32.661 31.5357 39.9856 22.8138 39.9856Z" fill="#9F86C0"/>
</svg>
