<svg width="45" height="40" viewBox="0 0 45 40" fill="none" xmlns="http://www.w3.org/2000/svg">
<path d="M15 37.5H30C31.5469 37.5 32.8125 36.375 32.8125 35V14.1667C32.8125 13.7083 32.3906 13.3333 31.875 13.3333V11.6667C31.875 10.75 31.0312 10 30 10H29.8875C29.5125 8.375 28.0594 7.08333 26.25 6.75V5.83333C26.25 3.99167 24.5719 2.5 22.5 2.5C20.4281 2.5 18.75 3.99167 18.75 5.83333V6.75C16.9406 7.08333 15.4875 8.375 15.1125 10H15C13.9687 10 13.125 10.75 13.125 11.6667V13.3333C12.6094 13.3333 12.1875 13.7083 12.1875 14.1667V35C12.1875 36.375 13.4531 37.5 15 37.5ZM19.6875 8.33333C20.2031 8.33333 20.625 7.95833 20.625 7.5V5.83333C20.625 4.91667 21.4687 4.16667 22.5 4.16667C23.5312 4.16667 24.375 4.91667 24.375 5.83333V7.5C24.375 7.95833 24.7969 8.33333 25.3125 8.33333C26.5125 8.33333 27.5719 9.025 27.9656 10H17.0344C17.4281 9.025 18.4875 8.33333 19.6875 8.33333ZM15 11.6667H30V13.3333H15V11.6667ZM14.0625 15H30.9375V35C30.9375 35.4583 30.5156 35.8333 30 35.8333H15C14.4844 35.8333 14.0625 35.4583 14.0625 35V15Z" fill="#BE95C4"/>
</svg>
