<svg width="29" height="26" viewBox="0 0 29 26" fill="none" xmlns="http://www.w3.org/2000/svg">
<path d="M14.5 25.4795C16.3791 25.4819 18.1633 26.4999 20.0204 25.6817C21.4959 25.031 22.6548 23.4507 22.9145 21.3203C23.1473 19.4111 22.4709 17.6406 21.3271 16.1214C17.7307 11.3461 11.2692 11.3461 7.67282 16.1214C6.52897 17.6406 5.85365 19.4099 6.08541 21.3203C6.34415 23.4507 7.50399 25.0322 8.9795 25.6817C10.8366 26.4999 12.6208 25.4831 14.5 25.4795Z" fill="#BE95C4"/>
<path d="M10.7453 8.90378C12.3283 8.53504 13.3121 6.39243 12.9427 4.11813C12.5732 1.84382 10.9904 0.299053 9.40735 0.66779C7.82432 1.03653 6.84053 3.17914 7.20999 5.45344C7.57946 7.72775 9.16227 9.27252 10.7453 8.90378Z" fill="#BE95C4"/>
<path d="M3.65656 14.497C5.03276 14.1767 5.88766 12.3137 5.56603 10.3359C5.2444 8.358 3.86804 7.01423 2.49183 7.33446C1.11563 7.6547 0.260733 9.51768 0.582364 11.4956C0.903995 13.4734 2.28036 14.8172 3.65656 14.497Z" fill="#BE95C4"/>
<path d="M21.79 5.45349C22.1593 3.17917 21.1754 1.03662 19.5924 0.667979C18.0093 0.299341 16.4266 1.84421 16.0572 4.11854C15.6879 6.39286 16.6717 8.53541 18.2548 8.90405C19.8378 9.27269 21.4206 7.72782 21.79 5.45349Z" fill="#BE95C4"/>
<path d="M28.4185 11.4956C28.7397 9.51763 27.8845 7.65439 26.5083 7.33393C25.1322 7.01347 23.7561 8.35713 23.4349 10.3351C23.1137 12.3131 23.9689 14.1763 25.345 14.4968C26.7212 14.8172 28.0972 13.4735 28.4185 11.4956Z" fill="#BE95C4"/>
</svg>
