<svg width="56" height="58" viewBox="0 0 56 58" fill="none" xmlns="http://www.w3.org/2000/svg">
<path d="M19.5317 0.116029C17.0508 0.85995 15.2304 3.9443 14.7005 8.30752C14.6083 9.10996 14.5853 9.73686 14.616 10.9823C14.6928 13.8493 15.1536 15.9306 16.2136 18.1875C18.1338 22.2581 21.4135 23.5788 23.9943 21.3303C27.466 18.2961 28.2878 10.1214 25.6917 4.46254C24.9851 2.92454 23.7638 1.33639 22.7961 0.717853C21.8129 0.0825939 20.4688 -0.168166 19.5317 0.116029Z" fill="#9F86C0"/>
<path d="M38.4032 2.19773C37.1359 2.54879 35.9992 3.27599 34.8163 4.49636C32.9191 6.45229 31.4982 9.04347 30.6917 12.0526C30.1848 13.9333 29.9774 16.3573 30.1848 18.0207C30.4766 20.3945 31.3599 22.0663 32.7963 22.9607C33.5797 23.4538 34.8701 23.5792 35.9915 23.2699C39.4478 22.3254 42.9119 17.4356 43.895 12.1195C44.6631 7.94849 43.8797 4.32083 41.8827 2.84134C41.1453 2.29803 40.5923 2.09742 39.709 2.07235C39.179 2.04727 38.8257 2.08906 38.4032 2.19773Z" fill="#9F86C0"/>
<path d="M3.51695 10.3055C1.74268 10.924 0.567515 12.7713 0.106666 15.6634C-0.0853546 16.867 -0.0085464 19.3579 0.260282 20.7371C0.913152 24.0722 2.24193 26.9142 4.18518 29.1125C5.04543 30.0821 5.67526 30.6087 6.56624 31.0851C8.60933 32.1968 10.4527 31.9712 11.8353 30.4666C14.3085 27.7667 14.3853 21.924 12.0119 16.6246C11.2976 15.0114 10.4297 13.7325 9.20076 12.4369C8.08704 11.2667 7.05781 10.5897 5.90569 10.2804C5.22209 10.0965 4.08533 10.1132 3.51695 10.3055Z" fill="#9F86C0"/>
<path d="M50.6773 16.424C48.7417 16.7332 46.3607 18.3966 44.6171 20.6618C42.1746 23.8381 40.8382 27.4741 40.8459 30.9179C40.8535 33.0159 41.3912 34.5706 42.4819 35.674C43.3344 36.5349 44.2408 36.8609 45.5926 36.794C47.4283 36.6937 49.3639 35.6155 51.261 33.6345C52.5668 32.272 53.5423 30.8176 54.3948 28.9954C55.5009 26.6132 56.0001 24.5653 56.0001 22.3503C56.0001 20.7788 55.8235 19.851 55.3165 18.7978C54.4255 16.9506 52.7434 16.0896 50.6773 16.424Z" fill="#9F86C0"/>
<path d="M25.2923 23.8548C24.601 24.0554 24.0557 24.2978 23.4259 24.7158C22.3582 25.4095 21.7899 26.0281 19.9695 28.4521C17.8189 31.3275 15.7297 33.6094 14.3702 34.5874C13.8018 34.9969 13.0798 35.4065 11.1366 36.4179C9.5159 37.2705 8.77086 37.7971 7.94134 38.6915C6.78153 39.9369 6.14402 41.2409 5.66013 43.3723C5.26841 45.0691 5.25305 45.4704 5.49115 46.9666C5.77534 48.8222 6.14402 49.9004 6.85834 51.0623C8.31002 53.3944 11.2441 55.0995 14.6237 55.5676C15.0922 55.6345 16.275 55.7097 17.2428 55.7348C19.693 55.8017 20.5456 55.8518 22.2737 56.0441C25.5611 56.4035 30.4538 57.1976 32.9347 57.7743C33.795 57.9749 34.0715 58 35.2927 58C36.7751 57.9916 37.5509 57.883 38.8259 57.4901C43.2578 56.1193 45.4237 51.848 44.1948 46.8746C43.8261 45.3533 43.0504 43.6064 42.3668 42.7538C42.1594 42.4947 41.3222 41.4916 40.508 40.5304C39.6939 39.5608 38.8029 38.4741 38.5187 38.1064C37.2437 36.4346 35.5769 33.6595 33.6183 29.9567C32.374 27.5912 31.9055 26.9057 30.6766 25.6101C29.7241 24.6071 28.9945 24.1307 27.9883 23.8548C27.2125 23.6375 26.0527 23.6375 25.2923 23.8548Z" fill="#9F86C0"/>
</svg>
